<svg width="26" height="26" viewBox="0 0 26 26" fill="none" xmlns="http://www.w3.org/2000/svg">
<circle cx="13" cy="13" r="13" fill="black" fill-opacity="0.38"/>
<path fill-rule="evenodd" clip-rule="evenodd" d="M12.2651 18.0125C12.2681 18.0832 12.2605 18.1522 12.2456 18.2221C12.2194 18.3448 12.1689 18.4746 12.0974 18.5946C11.8941 18.9356 11.5488 19.1632 11.1042 19.1632C10.0568 19.1632 9.6457 18.6493 9.13101 17.3626C8.78242 16.4911 8.61797 16.2856 8.22656 16.2856V15.1345C9.27395 15.1345 9.68503 15.6484 10.1997 16.9351C10.5483 17.8066 10.7128 18.0121 11.1042 18.0121C11.1042 17.8451 11.1019 17.6972 11.0971 17.4969C11.0858 17.0274 11.0845 16.9315 11.105 16.806C11.1132 16.532 11.1839 16.3376 11.3257 16.1446C10.0413 15.865 9.17497 15.2876 8.67776 14.3509L8.4915 13.9129C8.31004 13.3914 8.22656 12.8006 8.22656 12.1182C8.22656 11.3322 8.46618 10.6296 8.91374 10.0422C8.77413 9.48382 8.79325 8.80166 9.10153 8.03125L9.20227 7.77952L9.46052 7.69691C9.4951 7.68585 9.53713 7.67586 9.58651 7.66811C10.0894 7.58918 10.805 7.77749 11.7404 8.3767C12.2919 8.24887 12.8727 8.18432 13.4573 8.18432C13.9798 8.18432 14.4994 8.237 14.9956 8.34085C15.9058 7.77089 16.6017 7.59213 17.091 7.66821C17.1398 7.6758 17.1814 7.6856 17.2157 7.69647L17.4756 7.77888L17.5764 8.03215C17.8461 8.70939 17.8924 9.33352 17.7943 9.87965C18.3088 10.497 18.5859 11.256 18.5859 12.1182C18.5859 12.845 18.5339 13.3916 18.3842 13.9233L18.2262 14.3568C17.8126 15.2925 16.9005 15.8764 15.494 16.1545C15.6402 16.3569 15.7083 16.5624 15.7083 16.8611V17.4366C15.7083 17.7155 15.7083 17.7241 15.7077 18.0121C15.709 18.0328 15.7107 18.0429 15.7126 18.0492C15.7123 18.0494 15.7109 18.4207 15.7083 19.1632C15.2181 19.1632 14.8536 18.9241 14.6743 18.547C14.5814 18.3514 14.5536 18.1647 14.5573 18.004V16.8611C14.5573 16.8128 14.5556 16.81 14.4381 16.6925C14.124 16.3784 13.9818 16.1414 13.9818 15.71V15.1894L14.4998 15.1374C16.0418 14.9825 16.8804 14.5543 17.1585 13.9288L17.2884 13.5735C17.3918 13.2021 17.4349 12.7497 17.4349 12.1182C17.4349 11.447 17.2006 10.8927 16.7575 10.4497L16.514 10.2063L16.6134 9.87658C16.7017 9.58367 16.7226 9.23708 16.6292 8.84176C16.6137 8.84569 16.5976 8.84998 16.5808 8.85464C16.2727 8.94043 15.8879 9.12452 15.4243 9.43442L15.2128 9.57577L14.9659 9.51455C14.4885 9.39615 13.9754 9.33537 13.4573 9.33537C12.8813 9.33537 12.3119 9.40866 11.7858 9.55206L11.5291 9.62205L11.3095 9.47181C10.83 9.14378 10.4316 8.94869 10.1122 8.85756C10.0894 8.85106 10.0677 8.84523 10.047 8.84004C9.93558 9.29757 9.97966 9.67347 10.0925 9.95554L10.2279 10.2937L9.98011 10.5608C9.58531 10.9863 9.3776 11.5042 9.3776 12.1182C9.3776 12.6803 9.44341 13.1461 9.56401 13.497L9.71461 13.8535C10.0911 14.5599 10.8908 14.985 12.3165 15.1378L12.8307 15.1929V15.71C12.8307 16.1414 12.6885 16.3784 12.3744 16.6925C12.2569 16.81 12.2552 16.8128 12.2552 16.8611L12.2453 16.9675C12.2387 17.0024 12.2387 17.0925 12.2478 17.4692C12.2519 17.6425 12.2543 17.7797 12.255 17.923C12.2619 17.9526 12.2629 17.9718 12.2651 18.0125Z" fill="white"/>
</svg>
