<svg width="26" height="26" viewBox="0 0 26 26" fill="none" xmlns="http://www.w3.org/2000/svg">
<circle cx="13" cy="13" r="13" fill="black" fill-opacity="0.38"/>
<path d="M20.6426 8.98902C20.0997 9.22491 19.5253 9.38032 18.9375 9.45034C19.5552 9.08863 20.0197 8.514 20.244 7.83422C19.66 8.17571 19.0221 8.41532 18.3577 8.54278C18.0779 8.24957 17.7415 8.01631 17.3687 7.85718C16.996 7.69805 16.5948 7.61638 16.1895 7.61713C14.5487 7.61713 13.2208 8.9257 13.2208 10.5388C13.2197 10.7632 13.2454 10.9869 13.2974 11.2051C12.1208 11.15 10.9687 10.8498 9.91472 10.3239C8.86076 9.79796 7.92819 9.05781 7.17668 8.15081C6.91302 8.59528 6.77359 9.1024 6.77295 9.61918C6.77295 10.6323 7.3015 11.5278 8.09961 12.0524C7.62675 12.0412 7.16359 11.916 6.74943 11.6876V11.7237C6.74943 13.1409 7.77458 14.3198 9.13139 14.5881C8.87624 14.6561 8.61332 14.6906 8.34926 14.6906C8.1619 14.691 7.97495 14.6728 7.79116 14.6364C8.16835 15.7972 9.26617 16.6414 10.5666 16.6656C9.5099 17.4799 8.21256 17.9201 6.87848 17.9168C6.64168 17.9165 6.40509 17.9024 6.16992 17.8746C7.52709 18.7412 9.10469 19.1996 10.7149 19.1953C16.1832 19.1953 19.1706 14.7419 19.1706 10.8795C19.1706 10.7529 19.1673 10.6262 19.1612 10.5026C19.7411 10.0902 20.2427 9.57761 20.6426 8.98902Z" fill="white"/>
</svg>
