<svg width="464" height="380" viewBox="0 0 464 380" fill="none" xmlns="http://www.w3.org/2000/svg">
<rect width="464" height="380" rx="10" fill="#F7F7F7"/>
<path d="M52.1387 42V35.7686C52.1387 34.9834 51.96 34.3975 51.6025 34.0107C51.2451 33.624 50.6855 33.4307 49.9238 33.4307C48.916 33.4307 48.1777 33.7031 47.709 34.248C47.2402 34.793 47.0059 35.6924 47.0059 36.9463V42H45.5469V32.3672H46.7334L46.9707 33.6855H47.041C47.3398 33.2109 47.7588 32.8447 48.2979 32.5869C48.8369 32.3232 49.4375 32.1914 50.0996 32.1914C51.2598 32.1914 52.1328 32.4727 52.7188 33.0352C53.3047 33.5918 53.5977 34.4854 53.5977 35.7158V42H52.1387ZM60.6729 42.1758C59.249 42.1758 58.124 41.7422 57.2979 40.875C56.4775 40.0078 56.0674 38.8037 56.0674 37.2627C56.0674 35.71 56.4482 34.4766 57.21 33.5625C57.9775 32.6484 59.0059 32.1914 60.2949 32.1914C61.502 32.1914 62.457 32.5898 63.1602 33.3867C63.8633 34.1777 64.2148 35.2236 64.2148 36.5244V37.4473H57.5791C57.6084 38.5781 57.8926 39.4365 58.4316 40.0225C58.9766 40.6084 59.7412 40.9014 60.7256 40.9014C61.7627 40.9014 62.7881 40.6846 63.8018 40.251V41.5518C63.2861 41.7744 62.7969 41.9326 62.334 42.0264C61.877 42.126 61.3232 42.1758 60.6729 42.1758ZM60.2773 33.4131C59.5039 33.4131 58.8857 33.665 58.4229 34.1689C57.9658 34.6729 57.6963 35.3701 57.6143 36.2607H62.6504C62.6504 35.3408 62.4453 34.6377 62.0352 34.1514C61.625 33.6592 61.0391 33.4131 60.2773 33.4131ZM68.1699 42H66.7109V32.3672H68.1699V42ZM66.5879 29.7568C66.5879 29.4229 66.6699 29.1797 66.834 29.0273C66.998 28.8691 67.2031 28.79 67.4492 28.79C67.6836 28.79 67.8857 28.8691 68.0557 29.0273C68.2256 29.1855 68.3105 29.4287 68.3105 29.7568C68.3105 30.085 68.2256 30.3311 68.0557 30.4951C67.8857 30.6533 67.6836 30.7324 67.4492 30.7324C67.2031 30.7324 66.998 30.6533 66.834 30.4951C66.6699 30.3311 66.5879 30.085 66.5879 29.7568ZM72.7227 42H71.2637V28.3242H72.7227V42ZM80.2988 42.1758C79.6719 42.1758 79.0977 42.0615 78.5762 41.833C78.0605 41.5986 77.627 41.2412 77.2754 40.7607H77.1699C77.2402 41.3232 77.2754 41.8564 77.2754 42.3604V46.3242H75.8164V32.3672H77.0029L77.2051 33.6855H77.2754C77.6504 33.1582 78.0869 32.7773 78.585 32.543C79.083 32.3086 79.6543 32.1914 80.2988 32.1914C81.5762 32.1914 82.5605 32.6279 83.252 33.501C83.9492 34.374 84.2979 35.5986 84.2979 37.1748C84.2979 38.7568 83.9434 39.9873 83.2344 40.8662C82.5312 41.7393 81.5527 42.1758 80.2988 42.1758ZM80.0879 33.4307C79.1035 33.4307 78.3916 33.7031 77.9521 34.248C77.5127 34.793 77.2871 35.6602 77.2754 36.8496V37.1748C77.2754 38.5283 77.501 39.498 77.9521 40.084C78.4033 40.6641 79.127 40.9541 80.123 40.9541C80.9551 40.9541 81.6055 40.6172 82.0742 39.9434C82.5488 39.2695 82.7861 38.3408 82.7861 37.1572C82.7861 35.9561 82.5488 35.0361 82.0742 34.3975C81.6055 33.7529 80.9434 33.4307 80.0879 33.4307ZM92.7793 42L92.4893 40.6289H92.4189C91.9385 41.2324 91.458 41.6426 90.9775 41.8594C90.5029 42.0703 89.9082 42.1758 89.1934 42.1758C88.2383 42.1758 87.4883 41.9297 86.9434 41.4375C86.4043 40.9453 86.1348 40.2451 86.1348 39.3369C86.1348 37.3916 87.6904 36.3721 90.8018 36.2783L92.4365 36.2256V35.6279C92.4365 34.8721 92.2725 34.3154 91.9443 33.958C91.6221 33.5947 91.1035 33.4131 90.3887 33.4131C89.5859 33.4131 88.6777 33.6592 87.6641 34.1514L87.2158 33.0352C87.6904 32.7773 88.209 32.5752 88.7715 32.4287C89.3398 32.2822 89.9082 32.209 90.4766 32.209C91.625 32.209 92.4746 32.4639 93.0254 32.9736C93.582 33.4834 93.8604 34.3008 93.8604 35.4258V42H92.7793ZM89.4834 40.9717C90.3916 40.9717 91.1035 40.7227 91.6191 40.2246C92.1406 39.7266 92.4014 39.0293 92.4014 38.1328V37.2627L90.9424 37.3242C89.7822 37.3652 88.9443 37.5469 88.4287 37.8691C87.9189 38.1855 87.6641 38.6807 87.6641 39.3545C87.6641 39.8818 87.8223 40.2832 88.1387 40.5586C88.4609 40.834 88.9092 40.9717 89.4834 40.9717ZM99.9863 40.9717C100.244 40.9717 100.493 40.9541 100.733 40.9189C100.974 40.8779 101.164 40.8369 101.305 40.7959V41.9121C101.146 41.9883 100.912 42.0498 100.602 42.0967C100.297 42.1494 100.021 42.1758 99.7754 42.1758C97.9121 42.1758 96.9805 41.1943 96.9805 39.2314V33.501H95.6006V32.7979L96.9805 32.1914L97.5957 30.1348H98.4395V32.3672H101.234V33.501H98.4395V39.1699C98.4395 39.75 98.5771 40.1953 98.8525 40.5059C99.1279 40.8164 99.5059 40.9717 99.9863 40.9717ZM107.308 42.1758C105.884 42.1758 104.759 41.7422 103.933 40.875C103.112 40.0078 102.702 38.8037 102.702 37.2627C102.702 35.71 103.083 34.4766 103.845 33.5625C104.612 32.6484 105.641 32.1914 106.93 32.1914C108.137 32.1914 109.092 32.5898 109.795 33.3867C110.498 34.1777 110.85 35.2236 110.85 36.5244V37.4473H104.214C104.243 38.5781 104.527 39.4365 105.066 40.0225C105.611 40.6084 106.376 40.9014 107.36 40.9014C108.397 40.9014 109.423 40.6846 110.437 40.251V41.5518C109.921 41.7744 109.432 41.9326 108.969 42.0264C108.512 42.126 107.958 42.1758 107.308 42.1758ZM106.912 33.4131C106.139 33.4131 105.521 33.665 105.058 34.1689C104.601 34.6729 104.331 35.3701 104.249 36.2607H109.285C109.285 35.3408 109.08 34.6377 108.67 34.1514C108.26 33.6592 107.674 33.4131 106.912 33.4131ZM114.805 42H113.346V28.3242H114.805V42ZM117.688 41.0684C117.688 40.6758 117.775 40.3799 117.951 40.1807C118.133 39.9756 118.391 39.873 118.725 39.873C119.064 39.873 119.328 39.9756 119.516 40.1807C119.709 40.3799 119.806 40.6758 119.806 41.0684C119.806 41.4492 119.709 41.7422 119.516 41.9473C119.322 42.1523 119.059 42.2549 118.725 42.2549C118.426 42.2549 118.177 42.1641 117.978 41.9824C117.784 41.7949 117.688 41.4902 117.688 41.0684ZM126.547 42.1758C125.152 42.1758 124.071 41.748 123.304 40.8926C122.542 40.0312 122.161 38.8154 122.161 37.2451C122.161 35.6338 122.548 34.3887 123.321 33.5098C124.101 32.6309 125.208 32.1914 126.644 32.1914C127.106 32.1914 127.569 32.2412 128.032 32.3408C128.495 32.4404 128.858 32.5576 129.122 32.6924L128.674 33.9316C128.352 33.8027 128 33.6973 127.619 33.6152C127.238 33.5273 126.901 33.4834 126.608 33.4834C124.651 33.4834 123.673 34.7314 123.673 37.2275C123.673 38.4111 123.91 39.3193 124.385 39.9521C124.865 40.585 125.574 40.9014 126.512 40.9014C127.314 40.9014 128.138 40.7285 128.981 40.3828V41.6748C128.337 42.0088 127.525 42.1758 126.547 42.1758ZM139.59 37.1748C139.59 38.7451 139.194 39.9727 138.403 40.8574C137.612 41.7363 136.52 42.1758 135.125 42.1758C134.264 42.1758 133.499 41.9736 132.831 41.5693C132.163 41.165 131.647 40.585 131.284 39.8291C130.921 39.0732 130.739 38.1885 130.739 37.1748C130.739 35.6045 131.132 34.3828 131.917 33.5098C132.702 32.6309 133.792 32.1914 135.187 32.1914C136.534 32.1914 137.604 32.6396 138.395 33.5361C139.191 34.4326 139.59 35.6455 139.59 37.1748ZM132.251 37.1748C132.251 38.4053 132.497 39.3428 132.989 39.9873C133.481 40.6318 134.205 40.9541 135.16 40.9541C136.115 40.9541 136.839 40.6348 137.331 39.9961C137.829 39.3516 138.078 38.4111 138.078 37.1748C138.078 35.9502 137.829 35.0215 137.331 34.3887C136.839 33.75 136.109 33.4307 135.143 33.4307C134.188 33.4307 133.467 33.7441 132.98 34.3711C132.494 34.998 132.251 35.9326 132.251 37.1748ZM154.435 42V35.7334C154.435 34.9658 154.271 34.3916 153.942 34.0107C153.614 33.624 153.104 33.4307 152.413 33.4307C151.505 33.4307 150.834 33.6914 150.4 34.2129C149.967 34.7344 149.75 35.5371 149.75 36.6211V42H148.291V35.7334C148.291 34.9658 148.127 34.3916 147.799 34.0107C147.471 33.624 146.958 33.4307 146.261 33.4307C145.347 33.4307 144.676 33.7061 144.248 34.2568C143.826 34.8018 143.615 35.6982 143.615 36.9463V42H142.156V32.3672H143.343L143.58 33.6855H143.65C143.926 33.2168 144.312 32.8506 144.811 32.5869C145.314 32.3232 145.877 32.1914 146.498 32.1914C148.004 32.1914 148.988 32.7363 149.451 33.8262H149.521C149.809 33.3223 150.225 32.9238 150.77 32.6309C151.314 32.3379 151.936 32.1914 152.633 32.1914C153.723 32.1914 154.537 32.4727 155.076 33.0352C155.621 33.5918 155.894 34.4854 155.894 35.7158V42H154.435Z" fill="#0645AD"/>
<path d="M28 44.3333C32.6024 44.3333 36.3334 40.6024 36.3334 36C36.3334 31.3976 32.6024 27.6667 28 27.6667C23.3976 27.6667 19.6667 31.3976 19.6667 36C19.6667 40.6024 23.3976 44.3333 28 44.3333Z" stroke="#0645AD" stroke-linecap="round" stroke-linejoin="round"/>
<path d="M19.6667 36H36.3334" stroke="#0645AD" stroke-linecap="round" stroke-linejoin="round"/>
<path d="M28 27.6667C30.0844 29.9486 31.269 32.91 31.3334 36C31.269 39.09 30.0844 42.0514 28 44.3333C25.9156 42.0514 24.7311 39.09 24.6667 36C24.7311 32.91 25.9156 29.9486 28 27.6667V27.6667Z" stroke="#0645AD" stroke-linecap="round" stroke-linejoin="round"/>
<path d="M151.824 84.4414H152.82C153.751 84.4414 154.448 84.2591 154.91 83.8945C155.372 83.5234 155.604 82.9863 155.604 82.2832C155.604 81.5736 155.408 81.0495 155.018 80.7109C154.633 80.3724 154.028 80.2031 153.201 80.2031H151.824V84.4414ZM158.66 82.1758C158.66 83.7122 158.178 84.8874 157.215 85.7012C156.258 86.515 154.894 86.9219 153.123 86.9219H151.824V92H148.797V77.7227H153.357C155.089 77.7227 156.404 78.097 157.303 78.8457C158.208 79.5879 158.66 80.6979 158.66 82.1758ZM168.055 92L167.479 90.5156H167.4C166.899 91.1471 166.382 91.5866 165.848 91.834C165.32 92.0749 164.63 92.1953 163.777 92.1953C162.729 92.1953 161.902 91.8958 161.297 91.2969C160.698 90.6979 160.398 89.8451 160.398 88.7383C160.398 87.5794 160.802 86.7266 161.609 86.1797C162.423 85.6263 163.647 85.3203 165.281 85.2617L167.176 85.2031V84.7246C167.176 83.6178 166.609 83.0645 165.477 83.0645C164.604 83.0645 163.579 83.3281 162.4 83.8555L161.414 81.8438C162.671 81.1862 164.064 80.8574 165.594 80.8574C167.059 80.8574 168.182 81.1764 168.963 81.8145C169.744 82.4525 170.135 83.4225 170.135 84.7246V92H168.055ZM167.176 86.9414L166.023 86.9805C165.158 87.0065 164.513 87.1628 164.09 87.4492C163.667 87.7357 163.455 88.1719 163.455 88.7578C163.455 89.5977 163.937 90.0176 164.9 90.0176C165.59 90.0176 166.141 89.819 166.551 89.4219C166.967 89.0247 167.176 88.4974 167.176 87.8398V86.9414ZM182.713 81.082V82.5957L181.004 83.0352C181.316 83.5234 181.473 84.0703 181.473 84.6758C181.473 85.8477 181.062 86.7624 180.242 87.4199C179.428 88.071 178.296 88.3965 176.844 88.3965L176.307 88.3672L175.867 88.3184C175.561 88.5527 175.408 88.8132 175.408 89.0996C175.408 89.5293 175.955 89.7441 177.049 89.7441H178.904C180.102 89.7441 181.014 90.0013 181.639 90.5156C182.27 91.0299 182.586 91.7852 182.586 92.7812C182.586 94.0573 182.052 95.0469 180.984 95.75C179.923 96.4531 178.396 96.8047 176.404 96.8047C174.881 96.8047 173.715 96.5378 172.908 96.0039C172.107 95.4766 171.707 94.7344 171.707 93.7773C171.707 93.1198 171.912 92.5697 172.322 92.127C172.732 91.6842 173.335 91.3685 174.129 91.1797C173.823 91.0495 173.556 90.8379 173.328 90.5449C173.1 90.2454 172.986 89.9297 172.986 89.5977C172.986 89.181 173.107 88.8359 173.348 88.5625C173.589 88.2826 173.937 88.0091 174.393 87.7422C173.82 87.4948 173.364 87.0977 173.025 86.5508C172.693 86.0039 172.527 85.3594 172.527 84.6172C172.527 83.4258 172.915 82.5046 173.689 81.8535C174.464 81.2025 175.571 80.877 177.01 80.877C177.316 80.877 177.677 80.9062 178.094 80.9648C178.517 81.0169 178.787 81.056 178.904 81.082H182.713ZM174.285 93.543C174.285 93.9531 174.48 94.2754 174.871 94.5098C175.268 94.7441 175.822 94.8613 176.531 94.8613C177.599 94.8613 178.436 94.7148 179.041 94.4219C179.646 94.1289 179.949 93.7285 179.949 93.2207C179.949 92.8105 179.77 92.5273 179.412 92.3711C179.054 92.2148 178.501 92.1367 177.752 92.1367H176.209C175.662 92.1367 175.203 92.2637 174.832 92.5176C174.467 92.778 174.285 93.1198 174.285 93.543ZM175.369 84.6562C175.369 85.2487 175.503 85.7174 175.77 86.0625C176.043 86.4076 176.456 86.5801 177.01 86.5801C177.57 86.5801 177.98 86.4076 178.24 86.0625C178.501 85.7174 178.631 85.2487 178.631 84.6562C178.631 83.3411 178.09 82.6836 177.01 82.6836C175.916 82.6836 175.369 83.3411 175.369 84.6562ZM189.041 82.9961C188.41 82.9961 187.915 83.1979 187.557 83.6016C187.199 83.9987 186.993 84.5651 186.941 85.3008H191.121C191.108 84.5651 190.916 83.9987 190.545 83.6016C190.174 83.1979 189.673 82.9961 189.041 82.9961ZM189.461 92.1953C187.703 92.1953 186.329 91.7103 185.34 90.7402C184.35 89.7702 183.855 88.3965 183.855 86.6191C183.855 84.7897 184.311 83.377 185.223 82.3809C186.141 81.3783 187.407 80.877 189.021 80.877C190.564 80.877 191.766 81.3164 192.625 82.1953C193.484 83.0742 193.914 84.2884 193.914 85.8379V87.2832H186.873C186.906 88.1296 187.156 88.7904 187.625 89.2656C188.094 89.7409 188.751 89.9785 189.598 89.9785C190.255 89.9785 190.877 89.9102 191.463 89.7734C192.049 89.6367 192.661 89.4186 193.299 89.1191V91.4238C192.778 91.6842 192.221 91.8763 191.629 92C191.036 92.1302 190.314 92.1953 189.461 92.1953ZM204.998 88.0352C204.998 89.3242 204.533 90.3398 203.602 91.082C202.677 91.8242 201.388 92.1953 199.734 92.1953C198.211 92.1953 196.863 91.9089 195.691 91.3359V88.5234C196.655 88.9531 197.469 89.2559 198.133 89.4316C198.803 89.6074 199.415 89.6953 199.969 89.6953C200.633 89.6953 201.141 89.5684 201.492 89.3145C201.85 89.0605 202.029 88.6829 202.029 88.1816C202.029 87.9017 201.951 87.6543 201.795 87.4395C201.639 87.2181 201.408 87.0065 201.102 86.8047C200.802 86.6029 200.187 86.2806 199.256 85.8379C198.383 85.4277 197.729 85.0339 197.293 84.6562C196.857 84.2786 196.508 83.8392 196.248 83.3379C195.988 82.8366 195.857 82.2507 195.857 81.5801C195.857 80.3171 196.284 79.3242 197.137 78.6016C197.996 77.8789 199.181 77.5176 200.691 77.5176C201.434 77.5176 202.14 77.6055 202.811 77.7812C203.488 77.957 204.194 78.2044 204.93 78.5234L203.953 80.877C203.191 80.5645 202.56 80.3464 202.059 80.2227C201.564 80.099 201.076 80.0371 200.594 80.0371C200.021 80.0371 199.581 80.1706 199.275 80.4375C198.969 80.7044 198.816 81.0527 198.816 81.4824C198.816 81.7493 198.878 81.9837 199.002 82.1855C199.126 82.3809 199.321 82.5729 199.588 82.7617C199.861 82.944 200.503 83.276 201.512 83.7578C202.846 84.3958 203.761 85.0371 204.256 85.6816C204.751 86.3197 204.998 87.1042 204.998 88.0352ZM213.348 92.1953C212.065 92.1953 211.059 91.7298 210.33 90.7988H210.174C210.278 91.7103 210.33 92.2376 210.33 92.3809V96.8047H207.352V81.082H209.773L210.193 82.498H210.33C211.027 81.4173 212.059 80.877 213.426 80.877C214.715 80.877 215.724 81.375 216.453 82.3711C217.182 83.3672 217.547 84.7507 217.547 86.5215C217.547 87.6868 217.374 88.6992 217.029 89.5586C216.691 90.418 216.206 91.0723 215.574 91.5215C214.943 91.9707 214.201 92.1953 213.348 92.1953ZM212.469 83.2598C211.733 83.2598 211.196 83.4876 210.857 83.9434C210.519 84.3926 210.343 85.138 210.33 86.1797V86.502C210.33 87.6738 210.503 88.5137 210.848 89.0215C211.199 89.5293 211.753 89.7832 212.508 89.7832C213.842 89.7832 214.51 88.6829 214.51 86.4824C214.51 85.4082 214.344 84.6042 214.012 84.0703C213.686 83.5299 213.172 83.2598 212.469 83.2598ZM224.529 82.9961C223.898 82.9961 223.403 83.1979 223.045 83.6016C222.687 83.9987 222.482 84.5651 222.43 85.3008H226.609C226.596 84.5651 226.404 83.9987 226.033 83.6016C225.662 83.1979 225.161 82.9961 224.529 82.9961ZM224.949 92.1953C223.191 92.1953 221.818 91.7103 220.828 90.7402C219.839 89.7702 219.344 88.3965 219.344 86.6191C219.344 84.7897 219.799 83.377 220.711 82.3809C221.629 81.3783 222.895 80.877 224.51 80.877C226.053 80.877 227.254 81.3164 228.113 82.1953C228.973 83.0742 229.402 84.2884 229.402 85.8379V87.2832H222.361C222.394 88.1296 222.645 88.7904 223.113 89.2656C223.582 89.7409 224.24 89.9785 225.086 89.9785C225.743 89.9785 226.365 89.9102 226.951 89.7734C227.537 89.6367 228.149 89.4186 228.787 89.1191V91.4238C228.266 91.6842 227.71 91.8763 227.117 92C226.525 92.1302 225.802 92.1953 224.949 92.1953ZM236.346 82.9961C235.714 82.9961 235.219 83.1979 234.861 83.6016C234.503 83.9987 234.298 84.5651 234.246 85.3008H238.426C238.413 84.5651 238.221 83.9987 237.85 83.6016C237.479 83.1979 236.977 82.9961 236.346 82.9961ZM236.766 92.1953C235.008 92.1953 233.634 91.7103 232.645 90.7402C231.655 89.7702 231.16 88.3965 231.16 86.6191C231.16 84.7897 231.616 83.377 232.527 82.3809C233.445 81.3783 234.712 80.877 236.326 80.877C237.869 80.877 239.07 81.3164 239.93 82.1953C240.789 83.0742 241.219 84.2884 241.219 85.8379V87.2832H234.178C234.21 88.1296 234.461 88.7904 234.93 89.2656C235.398 89.7409 236.056 89.9785 236.902 89.9785C237.56 89.9785 238.182 89.9102 238.768 89.7734C239.354 89.6367 239.965 89.4186 240.604 89.1191V91.4238C240.083 91.6842 239.526 91.8763 238.934 92C238.341 92.1302 237.618 92.1953 236.766 92.1953ZM247.098 92.1953C245.815 92.1953 244.806 91.6973 244.07 90.7012C243.341 89.7051 242.977 88.3249 242.977 86.5605C242.977 84.7702 243.348 83.377 244.09 82.3809C244.839 81.3783 245.867 80.877 247.176 80.877C248.549 80.877 249.598 81.4108 250.32 82.4785H250.418C250.268 81.6647 250.193 80.9388 250.193 80.3008V76.8047H253.182V92H250.896L250.32 90.584H250.193C249.516 91.6582 248.484 92.1953 247.098 92.1953ZM248.143 89.8223C248.904 89.8223 249.461 89.6009 249.812 89.1582C250.171 88.7155 250.366 87.9635 250.398 86.9023V86.5801C250.398 85.4082 250.216 84.5684 249.852 84.0605C249.493 83.5527 248.908 83.2988 248.094 83.2988C247.43 83.2988 246.912 83.582 246.541 84.1484C246.176 84.7083 245.994 85.5254 245.994 86.5996C245.994 87.6738 246.18 88.4811 246.551 89.0215C246.922 89.5553 247.452 89.8223 248.143 89.8223ZM261.727 92V77.7227H264.754V92H261.727ZM278.191 92H275.213V85.623C275.213 84.8353 275.073 84.2461 274.793 83.8555C274.513 83.4583 274.067 83.2598 273.455 83.2598C272.622 83.2598 272.02 83.5397 271.648 84.0996C271.277 84.653 271.092 85.5742 271.092 86.8633V92H268.113V81.082H270.389L270.789 82.4785H270.955C271.287 81.9512 271.743 81.554 272.322 81.2871C272.908 81.0137 273.572 80.877 274.314 80.877C275.584 80.877 276.548 81.222 277.205 81.9121C277.863 82.5957 278.191 83.5853 278.191 84.8809V92ZM288.875 88.7578C288.875 89.8776 288.484 90.7305 287.703 91.3164C286.928 91.9023 285.766 92.1953 284.217 92.1953C283.423 92.1953 282.745 92.14 282.186 92.0293C281.626 91.9251 281.102 91.7689 280.613 91.5605V89.0996C281.167 89.36 281.788 89.5781 282.479 89.7539C283.175 89.9297 283.787 90.0176 284.314 90.0176C285.395 90.0176 285.936 89.7051 285.936 89.0801C285.936 88.8457 285.864 88.6569 285.721 88.5137C285.577 88.3639 285.33 88.1979 284.979 88.0156C284.627 87.8268 284.158 87.6087 283.572 87.3613C282.732 87.0098 282.114 86.6842 281.717 86.3848C281.326 86.0853 281.04 85.7435 280.857 85.3594C280.682 84.9688 280.594 84.4902 280.594 83.9238C280.594 82.9538 280.968 82.2051 281.717 81.6777C282.472 81.1439 283.54 80.877 284.92 80.877C286.235 80.877 287.514 81.1634 288.758 81.7363L287.859 83.8848C287.312 83.6504 286.801 83.4583 286.326 83.3086C285.851 83.1589 285.366 83.084 284.871 83.084C283.992 83.084 283.553 83.3216 283.553 83.7969C283.553 84.0638 283.693 84.2949 283.973 84.4902C284.259 84.6855 284.881 84.9753 285.838 85.3594C286.691 85.7044 287.316 86.0267 287.713 86.3262C288.11 86.6257 288.403 86.9707 288.592 87.3613C288.781 87.752 288.875 88.2174 288.875 88.7578ZM291.072 78.2598C291.072 77.2897 291.613 76.8047 292.693 76.8047C293.774 76.8047 294.314 77.2897 294.314 78.2598C294.314 78.722 294.178 79.0833 293.904 79.3438C293.637 79.5977 293.234 79.7246 292.693 79.7246C291.613 79.7246 291.072 79.2363 291.072 78.2598ZM294.178 92H291.199V81.082H294.178V92ZM306.814 81.082V82.5957L305.105 83.0352C305.418 83.5234 305.574 84.0703 305.574 84.6758C305.574 85.8477 305.164 86.7624 304.344 87.4199C303.53 88.071 302.397 88.3965 300.945 88.3965L300.408 88.3672L299.969 88.3184C299.663 88.5527 299.51 88.8132 299.51 89.0996C299.51 89.5293 300.057 89.7441 301.15 89.7441H303.006C304.204 89.7441 305.115 90.0013 305.74 90.5156C306.372 91.0299 306.688 91.7852 306.688 92.7812C306.688 94.0573 306.154 95.0469 305.086 95.75C304.025 96.4531 302.498 96.8047 300.506 96.8047C298.982 96.8047 297.817 96.5378 297.01 96.0039C296.209 95.4766 295.809 94.7344 295.809 93.7773C295.809 93.1198 296.014 92.5697 296.424 92.127C296.834 91.6842 297.436 91.3685 298.23 91.1797C297.924 91.0495 297.658 90.8379 297.43 90.5449C297.202 90.2454 297.088 89.9297 297.088 89.5977C297.088 89.181 297.208 88.8359 297.449 88.5625C297.69 88.2826 298.038 88.0091 298.494 87.7422C297.921 87.4948 297.465 87.0977 297.127 86.5508C296.795 86.0039 296.629 85.3594 296.629 84.6172C296.629 83.4258 297.016 82.5046 297.791 81.8535C298.566 81.2025 299.673 80.877 301.111 80.877C301.417 80.877 301.779 80.9062 302.195 80.9648C302.618 81.0169 302.889 81.056 303.006 81.082H306.814ZM298.387 93.543C298.387 93.9531 298.582 94.2754 298.973 94.5098C299.37 94.7441 299.923 94.8613 300.633 94.8613C301.701 94.8613 302.537 94.7148 303.143 94.4219C303.748 94.1289 304.051 93.7285 304.051 93.2207C304.051 92.8105 303.872 92.5273 303.514 92.3711C303.156 92.2148 302.602 92.1367 301.854 92.1367H300.311C299.764 92.1367 299.305 92.2637 298.934 92.5176C298.569 92.778 298.387 93.1198 298.387 93.543ZM299.471 84.6562C299.471 85.2487 299.604 85.7174 299.871 86.0625C300.145 86.4076 300.558 86.5801 301.111 86.5801C301.671 86.5801 302.081 86.4076 302.342 86.0625C302.602 85.7174 302.732 85.2487 302.732 84.6562C302.732 83.3411 302.192 82.6836 301.111 82.6836C300.018 82.6836 299.471 83.3411 299.471 84.6562ZM318.699 92H315.721V85.623C315.721 84.0475 315.135 83.2598 313.963 83.2598C313.13 83.2598 312.527 83.543 312.156 84.1094C311.785 84.6758 311.6 85.5938 311.6 86.8633V92H308.621V76.8047H311.6V79.9004C311.6 80.1413 311.577 80.7077 311.531 81.5996L311.463 82.4785H311.619C312.283 81.4108 313.338 80.877 314.783 80.877C316.066 80.877 317.039 81.222 317.703 81.9121C318.367 82.6022 318.699 83.5918 318.699 84.8809V92ZM326.365 89.8223C326.886 89.8223 327.511 89.7083 328.24 89.4805V91.6973C327.498 92.0293 326.587 92.1953 325.506 92.1953C324.314 92.1953 323.445 91.8958 322.898 91.2969C322.358 90.6914 322.088 89.7865 322.088 88.582V83.3184H320.662V82.0586L322.303 81.0625L323.162 78.7578H325.066V81.082H328.123V83.3184H325.066V88.582C325.066 89.0052 325.184 89.3177 325.418 89.5195C325.659 89.7214 325.975 89.8223 326.365 89.8223ZM338.074 88.7578C338.074 89.8776 337.684 90.7305 336.902 91.3164C336.128 91.9023 334.965 92.1953 333.416 92.1953C332.622 92.1953 331.945 92.14 331.385 92.0293C330.825 91.9251 330.301 91.7689 329.812 91.5605V89.0996C330.366 89.36 330.988 89.5781 331.678 89.7539C332.374 89.9297 332.986 90.0176 333.514 90.0176C334.594 90.0176 335.135 89.7051 335.135 89.0801C335.135 88.8457 335.063 88.6569 334.92 88.5137C334.777 88.3639 334.529 88.1979 334.178 88.0156C333.826 87.8268 333.357 87.6087 332.771 87.3613C331.932 87.0098 331.313 86.6842 330.916 86.3848C330.525 86.0853 330.239 85.7435 330.057 85.3594C329.881 84.9688 329.793 84.4902 329.793 83.9238C329.793 82.9538 330.167 82.2051 330.916 81.6777C331.671 81.1439 332.739 80.877 334.119 80.877C335.434 80.877 336.714 81.1634 337.957 81.7363L337.059 83.8848C336.512 83.6504 336.001 83.4583 335.525 83.3086C335.05 83.1589 334.565 83.084 334.07 83.084C333.191 83.084 332.752 83.3216 332.752 83.7969C332.752 84.0638 332.892 84.2949 333.172 84.4902C333.458 84.6855 334.08 84.9753 335.037 85.3594C335.89 85.7044 336.515 86.0267 336.912 86.3262C337.309 86.6257 337.602 86.9707 337.791 87.3613C337.98 87.752 338.074 88.2174 338.074 88.7578Z" fill="#1A1A1A"/>
<path d="M93.7666 246.15H97.3965C99.1016 246.15 100.335 246.405 101.097 246.915C101.858 247.425 102.239 248.23 102.239 249.332C102.239 250.094 102.025 250.724 101.598 251.222C101.176 251.714 100.558 252.033 99.7432 252.18V252.268C101.694 252.602 102.67 253.627 102.67 255.344C102.67 256.492 102.28 257.389 101.501 258.033C100.728 258.678 99.6436 259 98.249 259H93.7666V246.15ZM95.2607 251.652H97.7217C98.7764 251.652 99.5352 251.488 99.998 251.16C100.461 250.826 100.692 250.267 100.692 249.481C100.692 248.761 100.435 248.242 99.9189 247.926C99.4033 247.604 98.583 247.442 97.458 247.442H95.2607V251.652ZM95.2607 252.918V257.726H97.9414C98.9785 257.726 99.7578 257.526 100.279 257.128C100.807 256.724 101.07 256.094 101.07 255.238C101.07 254.441 100.801 253.855 100.262 253.48C99.7285 253.105 98.9141 252.918 97.8184 252.918H95.2607ZM109.288 259.176C107.864 259.176 106.739 258.742 105.913 257.875C105.093 257.008 104.683 255.804 104.683 254.263C104.683 252.71 105.063 251.477 105.825 250.562C106.593 249.648 107.621 249.191 108.91 249.191C110.117 249.191 111.072 249.59 111.775 250.387C112.479 251.178 112.83 252.224 112.83 253.524V254.447H106.194C106.224 255.578 106.508 256.437 107.047 257.022C107.592 257.608 108.356 257.901 109.341 257.901C110.378 257.901 111.403 257.685 112.417 257.251V258.552C111.901 258.774 111.412 258.933 110.949 259.026C110.492 259.126 109.938 259.176 109.288 259.176ZM108.893 250.413C108.119 250.413 107.501 250.665 107.038 251.169C106.581 251.673 106.312 252.37 106.229 253.261H111.266C111.266 252.341 111.061 251.638 110.65 251.151C110.24 250.659 109.654 250.413 108.893 250.413ZM119.668 250.501H117.216V259H115.757V250.501H114.034V249.842L115.757 249.314V248.778C115.757 246.411 116.791 245.228 118.859 245.228C119.369 245.228 119.967 245.33 120.652 245.535L120.274 246.704C119.712 246.522 119.231 246.432 118.833 246.432C118.282 246.432 117.875 246.616 117.611 246.985C117.348 247.349 117.216 247.935 117.216 248.743V249.367H119.668V250.501ZM129.74 254.175C129.74 255.745 129.345 256.973 128.554 257.857C127.763 258.736 126.67 259.176 125.275 259.176C124.414 259.176 123.649 258.974 122.981 258.569C122.313 258.165 121.798 257.585 121.435 256.829C121.071 256.073 120.89 255.188 120.89 254.175C120.89 252.604 121.282 251.383 122.067 250.51C122.853 249.631 123.942 249.191 125.337 249.191C126.685 249.191 127.754 249.64 128.545 250.536C129.342 251.433 129.74 252.646 129.74 254.175ZM122.401 254.175C122.401 255.405 122.647 256.343 123.14 256.987C123.632 257.632 124.355 257.954 125.311 257.954C126.266 257.954 126.989 257.635 127.481 256.996C127.979 256.352 128.229 255.411 128.229 254.175C128.229 252.95 127.979 252.021 127.481 251.389C126.989 250.75 126.26 250.431 125.293 250.431C124.338 250.431 123.617 250.744 123.131 251.371C122.645 251.998 122.401 252.933 122.401 254.175ZM136.701 249.191C137.129 249.191 137.513 249.227 137.853 249.297L137.65 250.65C137.252 250.562 136.9 250.519 136.596 250.519C135.816 250.519 135.148 250.835 134.592 251.468C134.041 252.101 133.766 252.889 133.766 253.832V259H132.307V249.367H133.511L133.678 251.151H133.748C134.105 250.524 134.536 250.041 135.04 249.701C135.544 249.361 136.098 249.191 136.701 249.191ZM143.724 259.176C142.3 259.176 141.175 258.742 140.349 257.875C139.528 257.008 139.118 255.804 139.118 254.263C139.118 252.71 139.499 251.477 140.261 250.562C141.028 249.648 142.057 249.191 143.346 249.191C144.553 249.191 145.508 249.59 146.211 250.387C146.914 251.178 147.266 252.224 147.266 253.524V254.447H140.63C140.659 255.578 140.943 256.437 141.482 257.022C142.027 257.608 142.792 257.901 143.776 257.901C144.813 257.901 145.839 257.685 146.853 257.251V258.552C146.337 258.774 145.848 258.933 145.385 259.026C144.928 259.126 144.374 259.176 143.724 259.176ZM143.328 250.413C142.555 250.413 141.937 250.665 141.474 251.169C141.017 251.673 140.747 252.37 140.665 253.261H145.701C145.701 252.341 145.496 251.638 145.086 251.151C144.676 250.659 144.09 250.413 143.328 250.413Z" fill="#1A1A1A"/>
<path d="M112.501 185H103.791V183.436L107.104 180.104C108.083 179.103 108.73 178.394 109.047 177.978C109.369 177.556 109.604 177.16 109.75 176.791C109.896 176.422 109.97 176.026 109.97 175.604C109.97 175.024 109.794 174.567 109.442 174.233C109.097 173.899 108.616 173.732 108.001 173.732C107.509 173.732 107.031 173.823 106.568 174.005C106.111 174.187 105.581 174.515 104.978 174.989L103.861 173.627C104.576 173.023 105.271 172.596 105.944 172.344C106.618 172.092 107.336 171.966 108.098 171.966C109.293 171.966 110.251 172.279 110.972 172.906C111.692 173.527 112.053 174.365 112.053 175.42C112.053 176 111.947 176.551 111.736 177.072C111.531 177.594 111.212 178.133 110.778 178.689C110.351 179.24 109.636 179.987 108.634 180.931L106.401 183.093V183.181H112.501V185ZM118.434 176.976C119.729 176.976 120.754 177.318 121.51 178.004C122.266 178.689 122.644 179.624 122.644 180.808C122.644 182.179 122.213 183.251 121.352 184.024C120.496 184.792 119.277 185.176 117.695 185.176C116.26 185.176 115.132 184.944 114.312 184.481V182.609C114.786 182.879 115.331 183.087 115.946 183.233C116.562 183.38 117.133 183.453 117.66 183.453C118.592 183.453 119.301 183.245 119.787 182.829C120.273 182.413 120.517 181.804 120.517 181.001C120.517 179.466 119.538 178.698 117.581 178.698C117.306 178.698 116.966 178.728 116.562 178.786C116.157 178.839 115.803 178.9 115.498 178.971L114.575 178.426L115.067 172.15H121.747V173.987H116.887L116.597 177.169C116.802 177.134 117.051 177.093 117.344 177.046C117.643 176.999 118.006 176.976 118.434 176.976ZM126.019 176C126.019 176.873 126.104 177.523 126.273 177.951C126.443 178.379 126.722 178.593 127.108 178.593C127.882 178.593 128.269 177.729 128.269 176C128.269 174.271 127.882 173.407 127.108 173.407C126.722 173.407 126.443 173.621 126.273 174.049C126.104 174.477 126.019 175.127 126.019 176ZM129.974 175.982C129.974 177.33 129.73 178.344 129.244 179.023C128.764 179.697 128.052 180.034 127.108 180.034C126.218 180.034 125.526 179.686 125.034 178.988C124.548 178.285 124.305 177.283 124.305 175.982C124.305 173.305 125.239 171.966 127.108 171.966C128.028 171.966 128.734 172.314 129.227 173.012C129.725 173.703 129.974 174.693 129.974 175.982ZM134.386 181.133C134.386 182.006 134.471 182.659 134.641 183.093C134.816 183.526 135.098 183.743 135.484 183.743C136.252 183.743 136.636 182.873 136.636 181.133C136.636 179.416 136.252 178.558 135.484 178.558C135.098 178.558 134.816 178.769 134.641 179.19C134.471 179.612 134.386 180.26 134.386 181.133ZM138.341 181.133C138.341 182.48 138.098 183.491 137.611 184.165C137.125 184.839 136.416 185.176 135.484 185.176C134.594 185.176 133.902 184.83 133.41 184.139C132.918 183.441 132.672 182.439 132.672 181.133C132.672 178.455 133.609 177.116 135.484 177.116C136.387 177.116 137.087 177.462 137.585 178.153C138.089 178.845 138.341 179.838 138.341 181.133ZM135.73 172.15L128.603 185H126.897L134.025 172.15H135.73Z" fill="#1A1A1A"/>
<circle cx="121" cy="177" r="51" stroke="#E3E3E3" stroke-width="10"/>
<mask id="path-10-inside-1_148_762" fill="white">
<path d="M150.364 134.791C151.655 132.996 154.168 132.576 155.866 133.993C160.474 137.835 164.441 142.4 167.609 147.515C171.481 153.767 174.084 160.721 175.269 167.979C176.453 175.237 176.197 182.657 174.514 189.816C173.137 195.674 170.827 201.262 167.68 206.371C166.52 208.254 164.004 208.655 162.209 207.364C160.414 206.073 160.022 203.578 161.159 201.682C163.704 197.437 165.582 192.817 166.718 187.983C168.161 181.848 168.381 175.489 167.365 169.269C166.35 163.049 164.12 157.09 160.801 151.731C158.187 147.51 154.938 143.727 151.175 140.512C149.494 139.075 149.072 136.586 150.364 134.791Z"/>
</mask>
<path d="M150.364 134.791C151.655 132.996 154.168 132.576 155.866 133.993C160.474 137.835 164.441 142.4 167.609 147.515C171.481 153.767 174.084 160.721 175.269 167.979C176.453 175.237 176.197 182.657 174.514 189.816C173.137 195.674 170.827 201.262 167.68 206.371C166.52 208.254 164.004 208.655 162.209 207.364C160.414 206.073 160.022 203.578 161.159 201.682C163.704 197.437 165.582 192.817 166.718 187.983C168.161 181.848 168.381 175.489 167.365 169.269C166.35 163.049 164.12 157.09 160.801 151.731C158.187 147.51 154.938 143.727 151.175 140.512C149.494 139.075 149.072 136.586 150.364 134.791Z" fill="#0066FF" stroke="#0066FF" stroke-width="16" stroke-linecap="round" stroke-linejoin="bevel" stroke-dasharray="16 32 48 64" mask="url(#path-10-inside-1_148_762)"/>
<path d="M332.844 259L331.244 254.913H326.094L324.512 259H323L328.08 246.098H329.337L334.391 259H332.844ZM330.778 253.568L329.284 249.587C329.091 249.083 328.892 248.465 328.687 247.732C328.558 248.295 328.373 248.913 328.133 249.587L326.621 253.568H330.778ZM340.279 250.501H337.827V259H336.368V250.501H334.646V249.842L336.368 249.314V248.778C336.368 246.411 337.402 245.228 339.471 245.228C339.98 245.228 340.578 245.33 341.264 245.535L340.886 246.704C340.323 246.522 339.843 246.432 339.444 246.432C338.894 246.432 338.486 246.616 338.223 246.985C337.959 247.349 337.827 247.935 337.827 248.743V249.367H340.279V250.501ZM345.148 257.972C345.406 257.972 345.655 257.954 345.896 257.919C346.136 257.878 346.326 257.837 346.467 257.796V258.912C346.309 258.988 346.074 259.05 345.764 259.097C345.459 259.149 345.184 259.176 344.938 259.176C343.074 259.176 342.143 258.194 342.143 256.231V250.501H340.763V249.798L342.143 249.191L342.758 247.135H343.602V249.367H346.396V250.501H343.602V256.17C343.602 256.75 343.739 257.195 344.015 257.506C344.29 257.816 344.668 257.972 345.148 257.972ZM352.47 259.176C351.046 259.176 349.921 258.742 349.095 257.875C348.274 257.008 347.864 255.804 347.864 254.263C347.864 252.71 348.245 251.477 349.007 250.562C349.774 249.648 350.803 249.191 352.092 249.191C353.299 249.191 354.254 249.59 354.957 250.387C355.66 251.178 356.012 252.224 356.012 253.524V254.447H349.376C349.405 255.578 349.689 256.437 350.229 257.022C350.773 257.608 351.538 257.901 352.522 257.901C353.56 257.901 354.585 257.685 355.599 257.251V258.552C355.083 258.774 354.594 258.933 354.131 259.026C353.674 259.126 353.12 259.176 352.47 259.176ZM352.074 250.413C351.301 250.413 350.683 250.665 350.22 251.169C349.763 251.673 349.493 252.37 349.411 253.261H354.447C354.447 252.341 354.242 251.638 353.832 251.151C353.422 250.659 352.836 250.413 352.074 250.413ZM362.902 249.191C363.33 249.191 363.714 249.227 364.054 249.297L363.852 250.65C363.453 250.562 363.102 250.519 362.797 250.519C362.018 250.519 361.35 250.835 360.793 251.468C360.242 252.101 359.967 252.889 359.967 253.832V259H358.508V249.367H359.712L359.879 251.151H359.949C360.307 250.524 360.737 250.041 361.241 249.701C361.745 249.361 362.299 249.191 362.902 249.191Z" fill="#1A1A1A"/>
<path d="M336.483 177.635C336.483 180.166 335.974 182.056 334.954 183.304C333.935 184.552 332.399 185.176 330.349 185.176C329.569 185.176 329.01 185.129 328.67 185.035V183.304C329.191 183.45 329.716 183.523 330.243 183.523C331.638 183.523 332.678 183.148 333.363 182.398C334.049 181.648 334.424 180.471 334.488 178.865H334.383C334.037 179.393 333.618 179.773 333.126 180.008C332.64 180.242 332.068 180.359 331.412 180.359C330.275 180.359 329.382 180.005 328.731 179.296C328.081 178.587 327.756 177.614 327.756 176.378C327.756 175.036 328.131 173.97 328.881 173.179C329.637 172.382 330.665 171.983 331.966 171.983C332.88 171.983 333.677 172.206 334.356 172.651C335.036 173.097 335.561 173.744 335.93 174.594C336.299 175.438 336.483 176.451 336.483 177.635ZM332.001 173.697C331.286 173.697 330.738 173.932 330.357 174.4C329.977 174.863 329.786 175.517 329.786 176.36C329.786 177.093 329.962 177.67 330.313 178.092C330.671 178.508 331.21 178.716 331.931 178.716C332.628 178.716 333.214 178.508 333.688 178.092C334.163 177.676 334.4 177.189 334.4 176.633C334.4 176.111 334.298 175.625 334.093 175.174C333.894 174.717 333.612 174.356 333.249 174.093C332.886 173.829 332.47 173.697 332.001 173.697ZM346.784 178.575C346.784 180.808 346.424 182.466 345.703 183.55C344.988 184.634 343.893 185.176 342.416 185.176C340.986 185.176 339.902 184.616 339.164 183.497C338.426 182.378 338.057 180.737 338.057 178.575C338.057 176.308 338.414 174.638 339.129 173.565C339.85 172.487 340.945 171.948 342.416 171.948C343.852 171.948 344.938 172.511 345.677 173.636C346.415 174.761 346.784 176.407 346.784 178.575ZM340.148 178.575C340.148 180.327 340.327 181.578 340.685 182.328C341.048 183.078 341.625 183.453 342.416 183.453C343.207 183.453 343.784 183.072 344.147 182.311C344.517 181.549 344.701 180.304 344.701 178.575C344.701 176.853 344.517 175.607 344.147 174.84C343.784 174.066 343.207 173.68 342.416 173.68C341.625 173.68 341.048 174.058 340.685 174.813C340.327 175.569 340.148 176.823 340.148 178.575ZM350.019 176C350.019 176.873 350.104 177.523 350.273 177.951C350.443 178.379 350.722 178.593 351.108 178.593C351.882 178.593 352.269 177.729 352.269 176C352.269 174.271 351.882 173.407 351.108 173.407C350.722 173.407 350.443 173.621 350.273 174.049C350.104 174.477 350.019 175.127 350.019 176ZM353.974 175.982C353.974 177.33 353.73 178.344 353.244 179.023C352.764 179.697 352.052 180.034 351.108 180.034C350.218 180.034 349.526 179.686 349.034 178.988C348.548 178.285 348.305 177.283 348.305 175.982C348.305 173.305 349.239 171.966 351.108 171.966C352.028 171.966 352.734 172.314 353.227 173.012C353.725 173.703 353.974 174.693 353.974 175.982ZM358.386 181.133C358.386 182.006 358.471 182.659 358.641 183.093C358.816 183.526 359.098 183.743 359.484 183.743C360.252 183.743 360.636 182.873 360.636 181.133C360.636 179.416 360.252 178.558 359.484 178.558C359.098 178.558 358.816 178.769 358.641 179.19C358.471 179.612 358.386 180.26 358.386 181.133ZM362.341 181.133C362.341 182.48 362.098 183.491 361.611 184.165C361.125 184.839 360.416 185.176 359.484 185.176C358.594 185.176 357.902 184.83 357.41 184.139C356.918 183.441 356.672 182.439 356.672 181.133C356.672 178.455 357.609 177.116 359.484 177.116C360.387 177.116 361.087 177.462 361.585 178.153C362.089 178.845 362.341 179.838 362.341 181.133ZM359.73 172.15L352.603 185H350.897L358.025 172.15H359.73Z" fill="#1A1A1A"/>
<circle cx="344" cy="177" r="51" stroke="#E3E3E3" stroke-width="10"/>
<mask id="path-14-inside-2_148_762" fill="white">
<path d="M373.887 135.453C375.442 133.292 378.47 132.786 380.489 134.52C389.826 142.54 396.298 153.449 398.825 165.587C401.68 179.304 399.29 193.592 392.126 205.633C384.962 217.674 373.545 226.592 360.128 230.627C346.711 234.662 332.269 233.522 319.652 227.43C307.035 221.338 297.159 210.738 291.975 197.722C286.79 184.705 286.674 170.218 291.647 157.12C296.621 144.022 306.324 133.264 318.841 126.97C329.918 121.4 342.485 119.683 354.572 122.007C357.187 122.51 358.673 125.196 357.948 127.757C357.222 130.319 354.559 131.78 351.936 131.324C342.182 129.629 332.093 131.096 323.172 135.582C312.81 140.793 304.777 149.699 300.66 160.542C296.542 171.386 296.639 183.379 300.931 194.154C305.223 204.93 313.398 213.705 323.843 218.748C334.288 223.792 346.244 224.736 357.352 221.395C368.459 218.055 377.911 210.672 383.842 200.704C389.772 190.736 391.751 178.907 389.387 167.552C387.352 157.776 382.226 148.963 374.832 142.379C372.844 140.609 372.333 137.614 373.887 135.453Z"/>
</mask>
<path d="M373.887 135.453C375.442 133.292 378.47 132.786 380.489 134.52C389.826 142.54 396.298 153.449 398.825 165.587C401.68 179.304 399.29 193.592 392.126 205.633C384.962 217.674 373.545 226.592 360.128 230.627C346.711 234.662 332.269 233.522 319.652 227.43C307.035 221.338 297.159 210.738 291.975 197.722C286.79 184.705 286.674 170.218 291.647 157.12C296.621 144.022 306.324 133.264 318.841 126.97C329.918 121.4 342.485 119.683 354.572 122.007C357.187 122.51 358.673 125.196 357.948 127.757C357.222 130.319 354.559 131.78 351.936 131.324C342.182 129.629 332.093 131.096 323.172 135.582C312.81 140.793 304.777 149.699 300.66 160.542C296.542 171.386 296.639 183.379 300.931 194.154C305.223 204.93 313.398 213.705 323.843 218.748C334.288 223.792 346.244 224.736 357.352 221.395C368.459 218.055 377.911 210.672 383.842 200.704C389.772 190.736 391.751 178.907 389.387 167.552C387.352 157.776 382.226 148.963 374.832 142.379C372.844 140.609 372.333 137.614 373.887 135.453Z" fill="#0066FF" stroke="#0066FF" stroke-width="16" stroke-linecap="round" stroke-linejoin="bevel" stroke-dasharray="16 32 48 64" mask="url(#path-14-inside-2_148_762)"/>
<g clip-path="url(#clip0_148_762)">
<path d="M219.767 197.972C217.663 196.102 213.791 196.728 212.33 198.378C210.868 200.028 209.208 209.887 209.208 209.887C212.951 208.158 218.812 207.035 220.25 205.414C221.687 203.792 221.871 199.84 219.767 197.972Z" fill="#F05A2A"/>
<path d="M219.662 198.092C217.939 196.563 214.777 197.074 213.583 198.424C212.388 199.773 211.031 207.828 211.031 207.828C214.09 206.416 218.881 205.498 220.055 204.173C221.229 202.849 221.381 199.62 219.662 198.092Z" fill="#F8EC3A"/>
<path d="M219.673 198.078C218.349 196.901 215.906 197.292 214.994 198.33C214.081 199.368 213.027 205.577 213.027 205.577C215.389 204.493 219.075 203.782 219.98 202.759C220.886 201.736 220.997 199.255 219.673 198.078Z" fill="white"/>
<path d="M217.429 197.353C216.329 195.841 213.713 195.682 212.517 196.533C211.322 197.384 208.803 203.509 208.803 203.509C211.495 202.942 215.483 203.067 216.657 202.229C217.831 201.391 218.528 198.866 217.429 197.353Z" fill="#F05A2A"/>
<path d="M217.344 197.418C216.446 196.181 214.307 196.05 213.33 196.75C212.352 197.45 210.291 202.451 210.291 202.451C212.491 201.984 215.749 202.088 216.709 201.402C217.669 200.716 218.24 198.651 217.344 197.418Z" fill="#F8EC3A"/>
<path d="M217.353 197.408C216.664 196.459 215.013 196.355 214.26 196.891C213.508 197.427 211.92 201.285 211.92 201.285C213.616 200.926 216.127 201.006 216.867 200.478C217.608 199.95 218.041 198.358 217.353 197.408Z" fill="white"/>
<path d="M218.339 197.61C217.226 197.204 215.822 198.062 215.522 198.94C215.222 199.818 216.138 203.982 216.138 203.982C217.315 202.707 219.412 201.336 219.713 200.467C220.013 199.599 219.449 198.019 218.339 197.61Z" fill="#F05A2A"/>
<path d="M218.317 197.672C217.407 197.342 216.262 198.044 216.01 198.767C215.759 199.489 216.513 202.887 216.513 202.887C217.482 201.849 219.19 200.723 219.436 200.014C219.683 199.304 219.226 198.004 218.317 197.672Z" fill="#F8EC3A"/>
<path d="M218.32 197.666C217.619 197.41 216.737 197.949 216.542 198.508C216.346 199.067 216.93 201.683 216.93 201.683C217.677 200.884 218.992 200.017 219.181 199.47C219.371 198.922 219.02 197.922 218.32 197.666Z" fill="white"/>
<path d="M223.4 183.754C223.4 183.754 219.541 182.807 215.947 184.147C211.387 185.848 206.409 190.331 206.744 191.218C207.079 192.105 210.009 190.457 212.539 190.246C216.723 189.895 218.375 191.691 218.375 191.691L223.4 183.754Z" fill="#C6421E"/>
<path d="M232.971 192.689C232.971 192.689 234.179 196.473 233.088 200.151C231.704 204.817 227.569 210.087 226.663 209.819C225.756 209.551 227.198 206.51 227.235 203.972C227.298 199.773 225.394 198.248 225.394 198.248L232.971 192.689Z" fill="#AA290B"/>
<path d="M221.905 202.395C222.991 201.8 230.557 197.519 237.587 189.989C243.405 183.758 243.022 176.798 242.426 172.973C238.57 172.64 231.594 172.739 225.78 178.965C218.75 186.495 214.997 194.337 214.479 195.462L221.905 202.395Z" fill="#2B2B38"/>
<path d="M227.399 174.084C218.498 183.618 215.628 191.531 214.971 192.955L224.371 201.732C225.748 200.98 233.446 197.574 242.347 188.04C246.27 183.839 248.641 178.648 249.886 173.981L240.907 165.598C236.338 167.161 231.322 169.882 227.399 174.084Z" fill="#F0F1F1"/>
<path d="M250.848 163.942C248.562 163.74 244.907 164.225 240.902 165.593L249.882 173.977C250.977 169.892 251.207 166.209 250.848 163.942Z" fill="#C6421E"/>
<path d="M249.886 173.981L245.393 169.785L219.666 197.341L224.365 201.728C225.742 200.976 233.44 197.571 242.341 188.037C246.27 183.839 248.64 178.647 249.886 173.981Z" fill="#D0D2D3"/>
<path d="M241.54 173.912C240.903 173.318 240.108 172.921 239.256 172.773C238.403 172.624 237.532 172.731 236.751 173.079C235.97 173.426 235.315 174 234.869 174.727C234.423 175.453 234.206 176.301 234.245 177.161C234.284 178.022 234.578 178.857 235.089 179.562C235.6 180.267 236.306 180.809 237.117 181.12C237.927 181.431 238.807 181.496 239.644 181.309C240.481 181.122 241.239 180.689 241.82 180.066C242.599 179.231 243.008 178.114 242.955 176.96C242.903 175.806 242.394 174.709 241.54 173.912Z" fill="#A5DCF0"/>
<path d="M240.192 182.025C241.163 181.729 242.019 181.151 242.651 180.362C243.282 179.573 243.661 178.61 243.74 177.594C243.818 176.578 243.593 175.555 243.091 174.654C242.59 173.754 241.836 173.015 240.924 172.533C240.012 172.051 238.984 171.847 237.969 171.946C236.953 172.045 235.997 172.443 235.221 173.09C234.444 173.737 233.882 174.603 233.606 175.58C233.33 176.557 233.353 177.599 233.67 178.577C234.096 179.887 235.023 180.987 236.246 181.634C237.469 182.28 238.888 182.421 240.192 182.025ZM239.837 180.932C239.079 181.162 238.266 181.161 237.499 180.929C236.732 180.697 236.046 180.244 235.528 179.628C235.01 179.013 234.684 178.262 234.589 177.47C234.495 176.678 234.637 175.882 234.998 175.181C235.359 174.48 235.922 173.906 236.617 173.533C237.312 173.159 238.107 173.002 238.901 173.081C239.695 173.16 240.453 173.473 241.079 173.978C241.705 174.484 242.171 175.16 242.418 175.922C242.748 176.943 242.662 178.044 242.178 178.984C241.694 179.924 240.852 180.625 239.837 180.932Z" fill="#2B2B38"/>
<path opacity="0.3" d="M239.951 181.292C240.777 181.041 241.504 180.549 242.04 179.878C242.577 179.208 242.899 178.39 242.965 177.526C243.032 176.663 242.841 175.794 242.415 175.028C241.989 174.263 241.349 173.635 240.574 173.225C239.8 172.815 238.926 172.64 238.063 172.724C237.2 172.807 236.387 173.145 235.727 173.693C235.067 174.242 234.588 174.978 234.353 175.807C234.117 176.637 234.134 177.523 234.402 178.354C234.581 178.907 234.866 179.422 235.242 179.869C235.618 180.316 236.076 180.686 236.592 180.959C237.107 181.232 237.669 181.402 238.246 181.459C238.822 181.516 239.402 181.46 239.951 181.292Z" fill="#E6E6E7"/>
<path opacity="0.5" d="M235.258 175.625C235.565 174.933 236.089 174.363 236.752 173.997C237.415 173.631 238.183 173.49 238.943 173.593C239.702 173.696 240.415 174.039 240.975 174.571C241.535 175.104 241.914 175.797 242.056 176.55C242.056 176.55 239.951 175.723 238.613 175.536C237.228 175.352 235.258 175.625 235.258 175.625Z" fill="white"/>
<path d="M227.155 189.37C226.52 188.777 225.202 189.344 223.998 190.632C222.795 191.921 215.781 199.716 216.697 200.571C217.611 201.426 224.908 193.895 226.112 192.605C227.316 191.316 227.789 189.961 227.155 189.37Z" fill="#C6421E"/>
<path d="M245.393 169.785L249.883 173.978C250.977 169.892 251.207 166.209 250.848 163.942L245.393 169.785Z" fill="#AA290B"/>
<path d="M227.155 189.37L216.697 200.572C217.612 201.426 224.908 193.895 226.112 192.606C227.316 191.316 227.789 189.961 227.155 189.37Z" fill="#AA290B"/>
</g>
<path d="M57.0123 298.435L63.1818 288L49.4789 302.024L55.2178 303.519L49 314L62.6895 299.976L57.0123 298.435Z" fill="#FDBA0E"/>
<path d="M72.9062 309.008C72.4167 309.008 72.0312 308.938 71.75 308.797V307.664C72.1198 307.768 72.5052 307.82 72.9062 307.82C73.4219 307.82 73.8125 307.664 74.0781 307.352C74.349 307.039 74.4844 306.589 74.4844 306V294.578H75.8125V305.891C75.8125 306.88 75.5625 307.646 75.0625 308.188C74.5625 308.734 73.8438 309.008 72.9062 309.008ZM83.9219 306L83.6641 304.781H83.6016C83.1745 305.318 82.7474 305.682 82.3203 305.875C81.8984 306.062 81.3698 306.156 80.7344 306.156C79.8854 306.156 79.2188 305.938 78.7344 305.5C78.2552 305.062 78.0156 304.44 78.0156 303.633C78.0156 301.904 79.3984 300.997 82.1641 300.914L83.6172 300.867V300.336C83.6172 299.664 83.4714 299.169 83.1797 298.852C82.8932 298.529 82.4323 298.367 81.7969 298.367C81.0833 298.367 80.276 298.586 79.375 299.023L78.9766 298.031C79.3984 297.802 79.8594 297.622 80.3594 297.492C80.8646 297.362 81.3698 297.297 81.875 297.297C82.8958 297.297 83.651 297.523 84.1406 297.977C84.6354 298.43 84.8828 299.156 84.8828 300.156V306H83.9219ZM80.9922 305.086C81.7995 305.086 82.4323 304.865 82.8906 304.422C83.3542 303.979 83.5859 303.359 83.5859 302.562V301.789L82.2891 301.844C81.2578 301.88 80.513 302.042 80.0547 302.328C79.6016 302.609 79.375 303.049 79.375 303.648C79.375 304.117 79.5156 304.474 79.7969 304.719C80.0833 304.964 80.4818 305.086 80.9922 305.086ZM89.4375 306L86.1875 297.438H87.5781L89.4219 302.516C89.8385 303.703 90.0833 304.474 90.1562 304.828H90.2188C90.276 304.552 90.4557 303.982 90.7578 303.117C91.0651 302.247 91.75 300.354 92.8125 297.438H94.2031L90.9531 306H89.4375ZM100.844 306L100.586 304.781H100.523C100.096 305.318 99.6693 305.682 99.2422 305.875C98.8203 306.062 98.2917 306.156 97.6562 306.156C96.8073 306.156 96.1406 305.938 95.6562 305.5C95.1771 305.062 94.9375 304.44 94.9375 303.633C94.9375 301.904 96.3203 300.997 99.0859 300.914L100.539 300.867V300.336C100.539 299.664 100.393 299.169 100.102 298.852C99.8151 298.529 99.3542 298.367 98.7188 298.367C98.0052 298.367 97.1979 298.586 96.2969 299.023L95.8984 298.031C96.3203 297.802 96.7812 297.622 97.2812 297.492C97.7865 297.362 98.2917 297.297 98.7969 297.297C99.8177 297.297 100.573 297.523 101.062 297.977C101.557 298.43 101.805 299.156 101.805 300.156V306H100.844ZM97.9141 305.086C98.7214 305.086 99.3542 304.865 99.8125 304.422C100.276 303.979 100.508 303.359 100.508 302.562V301.789L99.2109 301.844C98.1797 301.88 97.4349 302.042 96.9766 302.328C96.5234 302.609 96.2969 303.049 96.2969 303.648C96.2969 304.117 96.4375 304.474 96.7188 304.719C97.0052 304.964 97.4036 305.086 97.9141 305.086ZM110.008 303.664C110.008 304.461 109.711 305.076 109.117 305.508C108.523 305.94 107.69 306.156 106.617 306.156C105.482 306.156 104.596 305.977 103.961 305.617V304.414C104.372 304.622 104.812 304.786 105.281 304.906C105.755 305.026 106.211 305.086 106.648 305.086C107.326 305.086 107.846 304.979 108.211 304.766C108.576 304.547 108.758 304.216 108.758 303.773C108.758 303.44 108.612 303.156 108.32 302.922C108.034 302.682 107.471 302.401 106.633 302.078C105.836 301.781 105.268 301.523 104.93 301.305C104.596 301.081 104.346 300.828 104.18 300.547C104.018 300.266 103.938 299.93 103.938 299.539C103.938 298.841 104.221 298.292 104.789 297.891C105.357 297.484 106.135 297.281 107.125 297.281C108.047 297.281 108.948 297.469 109.828 297.844L109.367 298.898C108.508 298.544 107.729 298.367 107.031 298.367C106.417 298.367 105.953 298.464 105.641 298.656C105.328 298.849 105.172 299.115 105.172 299.453C105.172 299.682 105.229 299.878 105.344 300.039C105.464 300.201 105.654 300.354 105.914 300.5C106.174 300.646 106.674 300.857 107.414 301.133C108.43 301.503 109.115 301.875 109.469 302.25C109.828 302.625 110.008 303.096 110.008 303.664ZM115.547 306.156C114.307 306.156 113.346 305.776 112.664 305.016C111.987 304.25 111.648 303.169 111.648 301.773C111.648 300.341 111.992 299.234 112.68 298.453C113.372 297.672 114.357 297.281 115.633 297.281C116.044 297.281 116.456 297.326 116.867 297.414C117.279 297.503 117.602 297.607 117.836 297.727L117.438 298.828C117.151 298.714 116.839 298.62 116.5 298.547C116.161 298.469 115.862 298.43 115.602 298.43C113.862 298.43 112.992 299.539 112.992 301.758C112.992 302.81 113.203 303.617 113.625 304.18C114.052 304.742 114.682 305.023 115.516 305.023C116.229 305.023 116.961 304.87 117.711 304.562V305.711C117.138 306.008 116.417 306.156 115.547 306.156ZM123.656 297.281C124.036 297.281 124.378 297.312 124.68 297.375L124.5 298.578C124.146 298.5 123.833 298.461 123.562 298.461C122.87 298.461 122.276 298.742 121.781 299.305C121.292 299.867 121.047 300.568 121.047 301.406V306H119.75V297.438H120.82L120.969 299.023H121.031C121.349 298.466 121.732 298.036 122.18 297.734C122.628 297.432 123.12 297.281 123.656 297.281ZM127.578 306H126.281V297.438H127.578V306ZM126.172 295.117C126.172 294.82 126.245 294.604 126.391 294.469C126.536 294.328 126.719 294.258 126.938 294.258C127.146 294.258 127.326 294.328 127.477 294.469C127.628 294.609 127.703 294.826 127.703 295.117C127.703 295.409 127.628 295.628 127.477 295.773C127.326 295.914 127.146 295.984 126.938 295.984C126.719 295.984 126.536 295.914 126.391 295.773C126.245 295.628 126.172 295.409 126.172 295.117ZM134.312 306.156C133.755 306.156 133.245 306.055 132.781 305.852C132.323 305.643 131.938 305.326 131.625 304.898H131.531C131.594 305.398 131.625 305.872 131.625 306.32V309.844H130.328V297.438H131.383L131.562 298.609H131.625C131.958 298.141 132.346 297.802 132.789 297.594C133.232 297.385 133.74 297.281 134.312 297.281C135.448 297.281 136.323 297.669 136.938 298.445C137.557 299.221 137.867 300.31 137.867 301.711C137.867 303.117 137.552 304.211 136.922 304.992C136.297 305.768 135.427 306.156 134.312 306.156ZM134.125 298.383C133.25 298.383 132.617 298.625 132.227 299.109C131.836 299.594 131.635 300.365 131.625 301.422V301.711C131.625 302.914 131.826 303.776 132.227 304.297C132.628 304.812 133.271 305.07 134.156 305.07C134.896 305.07 135.474 304.771 135.891 304.172C136.312 303.573 136.523 302.747 136.523 301.695C136.523 300.628 136.312 299.81 135.891 299.242C135.474 298.669 134.885 298.383 134.125 298.383ZM142.906 305.086C143.135 305.086 143.357 305.07 143.57 305.039C143.784 305.003 143.953 304.966 144.078 304.93V305.922C143.938 305.99 143.729 306.044 143.453 306.086C143.182 306.133 142.938 306.156 142.719 306.156C141.062 306.156 140.234 305.284 140.234 303.539V298.445H139.008V297.82L140.234 297.281L140.781 295.453H141.531V297.438H144.016V298.445H141.531V303.484C141.531 304 141.654 304.396 141.898 304.672C142.143 304.948 142.479 305.086 142.906 305.086ZM151.25 306H149.953V293.844H151.25V306ZM161.391 301.711C161.391 303.107 161.039 304.198 160.336 304.984C159.633 305.766 158.661 306.156 157.422 306.156C156.656 306.156 155.977 305.977 155.383 305.617C154.789 305.258 154.331 304.742 154.008 304.07C153.685 303.398 153.523 302.612 153.523 301.711C153.523 300.315 153.872 299.229 154.57 298.453C155.268 297.672 156.237 297.281 157.477 297.281C158.674 297.281 159.625 297.68 160.328 298.477C161.036 299.273 161.391 300.352 161.391 301.711ZM154.867 301.711C154.867 302.805 155.086 303.638 155.523 304.211C155.961 304.784 156.604 305.07 157.453 305.07C158.302 305.07 158.945 304.786 159.383 304.219C159.826 303.646 160.047 302.81 160.047 301.711C160.047 300.622 159.826 299.797 159.383 299.234C158.945 298.667 158.297 298.383 157.438 298.383C156.589 298.383 155.948 298.661 155.516 299.219C155.083 299.776 154.867 300.607 154.867 301.711ZM168.938 306L168.68 304.781H168.617C168.19 305.318 167.763 305.682 167.336 305.875C166.914 306.062 166.385 306.156 165.75 306.156C164.901 306.156 164.234 305.938 163.75 305.5C163.271 305.062 163.031 304.44 163.031 303.633C163.031 301.904 164.414 300.997 167.18 300.914L168.633 300.867V300.336C168.633 299.664 168.487 299.169 168.195 298.852C167.909 298.529 167.448 298.367 166.812 298.367C166.099 298.367 165.292 298.586 164.391 299.023L163.992 298.031C164.414 297.802 164.875 297.622 165.375 297.492C165.88 297.362 166.385 297.297 166.891 297.297C167.911 297.297 168.667 297.523 169.156 297.977C169.651 298.43 169.898 299.156 169.898 300.156V306H168.938ZM166.008 305.086C166.815 305.086 167.448 304.865 167.906 304.422C168.37 303.979 168.602 303.359 168.602 302.562V301.789L167.305 301.844C166.273 301.88 165.529 302.042 165.07 302.328C164.617 302.609 164.391 303.049 164.391 303.648C164.391 304.117 164.531 304.474 164.812 304.719C165.099 304.964 165.497 305.086 166.008 305.086ZM178.406 304.852H178.336C177.737 305.721 176.841 306.156 175.648 306.156C174.529 306.156 173.656 305.773 173.031 305.008C172.411 304.242 172.102 303.154 172.102 301.742C172.102 300.331 172.414 299.234 173.039 298.453C173.664 297.672 174.534 297.281 175.648 297.281C176.81 297.281 177.701 297.703 178.32 298.547H178.422L178.367 297.93L178.336 297.328V293.844H179.633V306H178.578L178.406 304.852ZM175.812 305.07C176.698 305.07 177.339 304.831 177.734 304.352C178.135 303.867 178.336 303.089 178.336 302.016V301.742C178.336 300.529 178.133 299.664 177.727 299.148C177.326 298.628 176.682 298.367 175.797 298.367C175.036 298.367 174.453 298.664 174.047 299.258C173.646 299.846 173.445 300.68 173.445 301.758C173.445 302.852 173.646 303.677 174.047 304.234C174.448 304.792 175.036 305.07 175.812 305.07ZM183.688 306H182.391V297.438H183.688V306ZM182.281 295.117C182.281 294.82 182.354 294.604 182.5 294.469C182.646 294.328 182.828 294.258 183.047 294.258C183.255 294.258 183.435 294.328 183.586 294.469C183.737 294.609 183.812 294.826 183.812 295.117C183.812 295.409 183.737 295.628 183.586 295.773C183.435 295.914 183.255 295.984 183.047 295.984C182.828 295.984 182.646 295.914 182.5 295.773C182.354 295.628 182.281 295.409 182.281 295.117ZM192.297 306V300.461C192.297 299.763 192.138 299.242 191.82 298.898C191.503 298.555 191.005 298.383 190.328 298.383C189.432 298.383 188.776 298.625 188.359 299.109C187.943 299.594 187.734 300.393 187.734 301.508V306H186.438V297.438H187.492L187.703 298.609H187.766C188.031 298.188 188.404 297.862 188.883 297.633C189.362 297.398 189.896 297.281 190.484 297.281C191.516 297.281 192.292 297.531 192.812 298.031C193.333 298.526 193.594 299.32 193.594 300.414V306H192.297ZM203.273 297.438V298.258L201.688 298.445C201.833 298.628 201.964 298.867 202.078 299.164C202.193 299.456 202.25 299.786 202.25 300.156C202.25 300.995 201.964 301.664 201.391 302.164C200.818 302.664 200.031 302.914 199.031 302.914C198.776 302.914 198.536 302.893 198.312 302.852C197.76 303.143 197.484 303.51 197.484 303.953C197.484 304.188 197.581 304.362 197.773 304.477C197.966 304.586 198.297 304.641 198.766 304.641H200.281C201.208 304.641 201.919 304.836 202.414 305.227C202.914 305.617 203.164 306.185 203.164 306.93C203.164 307.878 202.784 308.599 202.023 309.094C201.263 309.594 200.154 309.844 198.695 309.844C197.576 309.844 196.711 309.635 196.102 309.219C195.497 308.802 195.195 308.214 195.195 307.453C195.195 306.932 195.362 306.482 195.695 306.102C196.029 305.721 196.497 305.464 197.102 305.328C196.883 305.229 196.698 305.076 196.547 304.867C196.401 304.659 196.328 304.417 196.328 304.141C196.328 303.828 196.411 303.555 196.578 303.32C196.745 303.086 197.008 302.859 197.367 302.641C196.924 302.458 196.562 302.148 196.281 301.711C196.005 301.273 195.867 300.773 195.867 300.211C195.867 299.273 196.148 298.552 196.711 298.047C197.273 297.536 198.07 297.281 199.102 297.281C199.549 297.281 199.953 297.333 200.312 297.438H203.273ZM196.445 307.438C196.445 307.901 196.641 308.253 197.031 308.492C197.422 308.732 197.982 308.852 198.711 308.852C199.799 308.852 200.604 308.688 201.125 308.359C201.651 308.036 201.914 307.596 201.914 307.039C201.914 306.576 201.771 306.253 201.484 306.07C201.198 305.893 200.659 305.805 199.867 305.805H198.312C197.724 305.805 197.266 305.945 196.938 306.227C196.609 306.508 196.445 306.911 196.445 307.438ZM197.148 300.18C197.148 300.779 197.318 301.232 197.656 301.539C197.995 301.846 198.466 302 199.07 302C200.336 302 200.969 301.385 200.969 300.156C200.969 298.87 200.328 298.227 199.047 298.227C198.438 298.227 197.969 298.391 197.641 298.719C197.312 299.047 197.148 299.534 197.148 300.18Z" fill="#1A1A1A"/>
<path d="M268.012 298.435L274.182 288L260.479 302.024L266.218 303.519L260 314L273.69 299.976L268.012 298.435Z" fill="#FDBA0E"/>
<path d="M285.57 306V294.578H286.898V306H285.57ZM300.758 306V300.43C300.758 299.747 300.612 299.237 300.32 298.898C300.029 298.555 299.576 298.383 298.961 298.383C298.154 298.383 297.557 298.615 297.172 299.078C296.786 299.542 296.594 300.255 296.594 301.219V306H295.297V300.43C295.297 299.747 295.151 299.237 294.859 298.898C294.568 298.555 294.112 298.383 293.492 298.383C292.68 298.383 292.083 298.628 291.703 299.117C291.328 299.602 291.141 300.398 291.141 301.508V306H289.844V297.438H290.898L291.109 298.609H291.172C291.417 298.193 291.76 297.867 292.203 297.633C292.651 297.398 293.151 297.281 293.703 297.281C295.042 297.281 295.917 297.766 296.328 298.734H296.391C296.646 298.286 297.016 297.932 297.5 297.672C297.984 297.411 298.536 297.281 299.156 297.281C300.125 297.281 300.849 297.531 301.328 298.031C301.812 298.526 302.055 299.32 302.055 300.414V306H300.758ZM310 306L309.742 304.781H309.68C309.253 305.318 308.826 305.682 308.398 305.875C307.977 306.062 307.448 306.156 306.812 306.156C305.964 306.156 305.297 305.938 304.812 305.5C304.333 305.062 304.094 304.44 304.094 303.633C304.094 301.904 305.477 300.997 308.242 300.914L309.695 300.867V300.336C309.695 299.664 309.549 299.169 309.258 298.852C308.971 298.529 308.51 298.367 307.875 298.367C307.161 298.367 306.354 298.586 305.453 299.023L305.055 298.031C305.477 297.802 305.938 297.622 306.438 297.492C306.943 297.362 307.448 297.297 307.953 297.297C308.974 297.297 309.729 297.523 310.219 297.977C310.714 298.43 310.961 299.156 310.961 300.156V306H310ZM307.07 305.086C307.878 305.086 308.51 304.865 308.969 304.422C309.432 303.979 309.664 303.359 309.664 302.562V301.789L308.367 301.844C307.336 301.88 306.591 302.042 306.133 302.328C305.68 302.609 305.453 303.049 305.453 303.648C305.453 304.117 305.594 304.474 305.875 304.719C306.161 304.964 306.56 305.086 307.07 305.086ZM320.648 297.438V298.258L319.062 298.445C319.208 298.628 319.339 298.867 319.453 299.164C319.568 299.456 319.625 299.786 319.625 300.156C319.625 300.995 319.339 301.664 318.766 302.164C318.193 302.664 317.406 302.914 316.406 302.914C316.151 302.914 315.911 302.893 315.688 302.852C315.135 303.143 314.859 303.51 314.859 303.953C314.859 304.188 314.956 304.362 315.148 304.477C315.341 304.586 315.672 304.641 316.141 304.641H317.656C318.583 304.641 319.294 304.836 319.789 305.227C320.289 305.617 320.539 306.185 320.539 306.93C320.539 307.878 320.159 308.599 319.398 309.094C318.638 309.594 317.529 309.844 316.07 309.844C314.951 309.844 314.086 309.635 313.477 309.219C312.872 308.802 312.57 308.214 312.57 307.453C312.57 306.932 312.737 306.482 313.07 306.102C313.404 305.721 313.872 305.464 314.477 305.328C314.258 305.229 314.073 305.076 313.922 304.867C313.776 304.659 313.703 304.417 313.703 304.141C313.703 303.828 313.786 303.555 313.953 303.32C314.12 303.086 314.383 302.859 314.742 302.641C314.299 302.458 313.938 302.148 313.656 301.711C313.38 301.273 313.242 300.773 313.242 300.211C313.242 299.273 313.523 298.552 314.086 298.047C314.648 297.536 315.445 297.281 316.477 297.281C316.924 297.281 317.328 297.333 317.688 297.438H320.648ZM313.82 307.438C313.82 307.901 314.016 308.253 314.406 308.492C314.797 308.732 315.357 308.852 316.086 308.852C317.174 308.852 317.979 308.688 318.5 308.359C319.026 308.036 319.289 307.596 319.289 307.039C319.289 306.576 319.146 306.253 318.859 306.07C318.573 305.893 318.034 305.805 317.242 305.805H315.688C315.099 305.805 314.641 305.945 314.312 306.227C313.984 306.508 313.82 306.911 313.82 307.438ZM314.523 300.18C314.523 300.779 314.693 301.232 315.031 301.539C315.37 301.846 315.841 302 316.445 302C317.711 302 318.344 301.385 318.344 300.156C318.344 298.87 317.703 298.227 316.422 298.227C315.812 298.227 315.344 298.391 315.016 298.719C314.688 299.047 314.523 299.534 314.523 300.18ZM326.023 306.156C324.758 306.156 323.758 305.771 323.023 305C322.294 304.229 321.93 303.159 321.93 301.789C321.93 300.409 322.268 299.312 322.945 298.5C323.628 297.688 324.542 297.281 325.688 297.281C326.76 297.281 327.609 297.635 328.234 298.344C328.859 299.047 329.172 299.977 329.172 301.133V301.953H323.273C323.299 302.958 323.552 303.721 324.031 304.242C324.516 304.763 325.195 305.023 326.07 305.023C326.992 305.023 327.904 304.831 328.805 304.445V305.602C328.346 305.799 327.911 305.94 327.5 306.023C327.094 306.112 326.602 306.156 326.023 306.156ZM325.672 298.367C324.984 298.367 324.435 298.591 324.023 299.039C323.617 299.487 323.378 300.107 323.305 300.898H327.781C327.781 300.081 327.599 299.456 327.234 299.023C326.87 298.586 326.349 298.367 325.672 298.367ZM335.742 306V294.578H337.07V304.797H342.109V306H335.742ZM351.25 301.711C351.25 303.107 350.898 304.198 350.195 304.984C349.492 305.766 348.521 306.156 347.281 306.156C346.516 306.156 345.836 305.977 345.242 305.617C344.648 305.258 344.19 304.742 343.867 304.07C343.544 303.398 343.383 302.612 343.383 301.711C343.383 300.315 343.732 299.229 344.43 298.453C345.128 297.672 346.096 297.281 347.336 297.281C348.534 297.281 349.484 297.68 350.188 298.477C350.896 299.273 351.25 300.352 351.25 301.711ZM344.727 301.711C344.727 302.805 344.945 303.638 345.383 304.211C345.82 304.784 346.464 305.07 347.312 305.07C348.161 305.07 348.805 304.786 349.242 304.219C349.685 303.646 349.906 302.81 349.906 301.711C349.906 300.622 349.685 299.797 349.242 299.234C348.805 298.667 348.156 298.383 347.297 298.383C346.448 298.383 345.807 298.661 345.375 299.219C344.943 299.776 344.727 300.607 344.727 301.711ZM358.797 306L358.539 304.781H358.477C358.049 305.318 357.622 305.682 357.195 305.875C356.773 306.062 356.245 306.156 355.609 306.156C354.76 306.156 354.094 305.938 353.609 305.5C353.13 305.062 352.891 304.44 352.891 303.633C352.891 301.904 354.273 300.997 357.039 300.914L358.492 300.867V300.336C358.492 299.664 358.346 299.169 358.055 298.852C357.768 298.529 357.307 298.367 356.672 298.367C355.958 298.367 355.151 298.586 354.25 299.023L353.852 298.031C354.273 297.802 354.734 297.622 355.234 297.492C355.74 297.362 356.245 297.297 356.75 297.297C357.771 297.297 358.526 297.523 359.016 297.977C359.51 298.43 359.758 299.156 359.758 300.156V306H358.797ZM355.867 305.086C356.674 305.086 357.307 304.865 357.766 304.422C358.229 303.979 358.461 303.359 358.461 302.562V301.789L357.164 301.844C356.133 301.88 355.388 302.042 354.93 302.328C354.477 302.609 354.25 303.049 354.25 303.648C354.25 304.117 354.391 304.474 354.672 304.719C354.958 304.964 355.357 305.086 355.867 305.086ZM368.266 304.852H368.195C367.596 305.721 366.701 306.156 365.508 306.156C364.388 306.156 363.516 305.773 362.891 305.008C362.271 304.242 361.961 303.154 361.961 301.742C361.961 300.331 362.273 299.234 362.898 298.453C363.523 297.672 364.393 297.281 365.508 297.281C366.669 297.281 367.56 297.703 368.18 298.547H368.281L368.227 297.93L368.195 297.328V293.844H369.492V306H368.438L368.266 304.852ZM365.672 305.07C366.557 305.07 367.198 304.831 367.594 304.352C367.995 303.867 368.195 303.089 368.195 302.016V301.742C368.195 300.529 367.992 299.664 367.586 299.148C367.185 298.628 366.542 298.367 365.656 298.367C364.896 298.367 364.312 298.664 363.906 299.258C363.505 299.846 363.305 300.68 363.305 301.758C363.305 302.852 363.505 303.677 363.906 304.234C364.307 304.792 364.896 305.07 365.672 305.07ZM373.547 306H372.25V297.438H373.547V306ZM372.141 295.117C372.141 294.82 372.214 294.604 372.359 294.469C372.505 294.328 372.688 294.258 372.906 294.258C373.115 294.258 373.294 294.328 373.445 294.469C373.596 294.609 373.672 294.826 373.672 295.117C373.672 295.409 373.596 295.628 373.445 295.773C373.294 295.914 373.115 295.984 372.906 295.984C372.688 295.984 372.505 295.914 372.359 295.773C372.214 295.628 372.141 295.409 372.141 295.117ZM382.156 306V300.461C382.156 299.763 381.997 299.242 381.68 298.898C381.362 298.555 380.865 298.383 380.188 298.383C379.292 298.383 378.635 298.625 378.219 299.109C377.802 299.594 377.594 300.393 377.594 301.508V306H376.297V297.438H377.352L377.562 298.609H377.625C377.891 298.188 378.263 297.862 378.742 297.633C379.221 297.398 379.755 297.281 380.344 297.281C381.375 297.281 382.151 297.531 382.672 298.031C383.193 298.526 383.453 299.32 383.453 300.414V306H382.156ZM393.133 297.438V298.258L391.547 298.445C391.693 298.628 391.823 298.867 391.938 299.164C392.052 299.456 392.109 299.786 392.109 300.156C392.109 300.995 391.823 301.664 391.25 302.164C390.677 302.664 389.891 302.914 388.891 302.914C388.635 302.914 388.396 302.893 388.172 302.852C387.62 303.143 387.344 303.51 387.344 303.953C387.344 304.188 387.44 304.362 387.633 304.477C387.826 304.586 388.156 304.641 388.625 304.641H390.141C391.068 304.641 391.779 304.836 392.273 305.227C392.773 305.617 393.023 306.185 393.023 306.93C393.023 307.878 392.643 308.599 391.883 309.094C391.122 309.594 390.013 309.844 388.555 309.844C387.435 309.844 386.57 309.635 385.961 309.219C385.357 308.802 385.055 308.214 385.055 307.453C385.055 306.932 385.221 306.482 385.555 306.102C385.888 305.721 386.357 305.464 386.961 305.328C386.742 305.229 386.557 305.076 386.406 304.867C386.26 304.659 386.188 304.417 386.188 304.141C386.188 303.828 386.271 303.555 386.438 303.32C386.604 303.086 386.867 302.859 387.227 302.641C386.784 302.458 386.422 302.148 386.141 301.711C385.865 301.273 385.727 300.773 385.727 300.211C385.727 299.273 386.008 298.552 386.57 298.047C387.133 297.536 387.93 297.281 388.961 297.281C389.409 297.281 389.812 297.333 390.172 297.438H393.133ZM386.305 307.438C386.305 307.901 386.5 308.253 386.891 308.492C387.281 308.732 387.841 308.852 388.57 308.852C389.659 308.852 390.464 308.688 390.984 308.359C391.51 308.036 391.773 307.596 391.773 307.039C391.773 306.576 391.63 306.253 391.344 306.07C391.057 305.893 390.518 305.805 389.727 305.805H388.172C387.583 305.805 387.125 305.945 386.797 306.227C386.469 306.508 386.305 306.911 386.305 307.438ZM387.008 300.18C387.008 300.779 387.177 301.232 387.516 301.539C387.854 301.846 388.326 302 388.93 302C390.195 302 390.828 301.385 390.828 300.156C390.828 298.87 390.188 298.227 388.906 298.227C388.297 298.227 387.828 298.391 387.5 298.719C387.172 299.047 387.008 299.534 387.008 300.18Z" fill="#1A1A1A"/>
<path d="M57.0123 340.435L63.1818 330L49.4789 344.024L55.2178 345.519L49 356L62.6895 341.976L57.0123 340.435Z" fill="#FDBA0E"/>
<path d="M79.4609 337.602C78.2057 337.602 77.2135 338.021 76.4844 338.859C75.7604 339.693 75.3984 340.836 75.3984 342.289C75.3984 343.784 75.7474 344.94 76.4453 345.758C77.1484 346.57 78.1484 346.977 79.4453 346.977C80.2422 346.977 81.151 346.833 82.1719 346.547V347.711C81.3802 348.008 80.4036 348.156 79.2422 348.156C77.5599 348.156 76.2604 347.646 75.3438 346.625C74.4323 345.604 73.9766 344.154 73.9766 342.273C73.9766 341.096 74.1953 340.065 74.6328 339.18C75.0755 338.294 75.7109 337.612 76.5391 337.133C77.3724 336.654 78.3516 336.414 79.4766 336.414C80.6745 336.414 81.7214 336.633 82.6172 337.07L82.0547 338.211C81.1901 337.805 80.3255 337.602 79.4609 337.602ZM91.1094 344.961C91.1094 345.966 90.7448 346.75 90.0156 347.312C89.2865 347.875 88.2969 348.156 87.0469 348.156C85.6927 348.156 84.651 347.982 83.9219 347.633V346.352C84.3906 346.549 84.901 346.706 85.4531 346.82C86.0052 346.935 86.5521 346.992 87.0938 346.992C87.9792 346.992 88.6458 346.826 89.0938 346.492C89.5417 346.154 89.7656 345.685 89.7656 345.086C89.7656 344.69 89.6849 344.367 89.5234 344.117C89.3672 343.862 89.1016 343.628 88.7266 343.414C88.3568 343.201 87.7917 342.958 87.0312 342.688C85.9688 342.307 85.2083 341.857 84.75 341.336C84.2969 340.815 84.0703 340.135 84.0703 339.297C84.0703 338.417 84.401 337.716 85.0625 337.195C85.724 336.674 86.599 336.414 87.6875 336.414C88.8229 336.414 89.8672 336.622 90.8203 337.039L90.4062 338.195C89.4635 337.799 88.5469 337.602 87.6562 337.602C86.9531 337.602 86.4036 337.753 86.0078 338.055C85.612 338.357 85.4141 338.776 85.4141 339.312C85.4141 339.708 85.487 340.034 85.6328 340.289C85.7786 340.539 86.0234 340.771 86.3672 340.984C86.7161 341.193 87.2474 341.424 87.9609 341.68C89.1589 342.107 89.9818 342.565 90.4297 343.055C90.8828 343.544 91.1094 344.18 91.1094 344.961ZM99.8906 344.961C99.8906 345.966 99.526 346.75 98.7969 347.312C98.0677 347.875 97.0781 348.156 95.8281 348.156C94.474 348.156 93.4323 347.982 92.7031 347.633V346.352C93.1719 346.549 93.6823 346.706 94.2344 346.82C94.7865 346.935 95.3333 346.992 95.875 346.992C96.7604 346.992 97.4271 346.826 97.875 346.492C98.3229 346.154 98.5469 345.685 98.5469 345.086C98.5469 344.69 98.4661 344.367 98.3047 344.117C98.1484 343.862 97.8828 343.628 97.5078 343.414C97.138 343.201 96.5729 342.958 95.8125 342.688C94.75 342.307 93.9896 341.857 93.5312 341.336C93.0781 340.815 92.8516 340.135 92.8516 339.297C92.8516 338.417 93.1823 337.716 93.8438 337.195C94.5052 336.674 95.3802 336.414 96.4688 336.414C97.6042 336.414 98.6484 336.622 99.6016 337.039L99.1875 338.195C98.2448 337.799 97.3281 337.602 96.4375 337.602C95.7344 337.602 95.1849 337.753 94.7891 338.055C94.3932 338.357 94.1953 338.776 94.1953 339.312C94.1953 339.708 94.2682 340.034 94.4141 340.289C94.5599 340.539 94.8047 340.771 95.1484 340.984C95.4974 341.193 96.0286 341.424 96.7422 341.68C97.9401 342.107 98.763 342.565 99.2109 343.055C99.6641 343.544 99.8906 344.18 99.8906 344.961ZM107.484 348H106.188V335.844H107.484V348ZM117.625 343.711C117.625 345.107 117.273 346.198 116.57 346.984C115.867 347.766 114.896 348.156 113.656 348.156C112.891 348.156 112.211 347.977 111.617 347.617C111.023 347.258 110.565 346.742 110.242 346.07C109.919 345.398 109.758 344.612 109.758 343.711C109.758 342.315 110.107 341.229 110.805 340.453C111.503 339.672 112.471 339.281 113.711 339.281C114.909 339.281 115.859 339.68 116.562 340.477C117.271 341.273 117.625 342.352 117.625 343.711ZM111.102 343.711C111.102 344.805 111.32 345.638 111.758 346.211C112.195 346.784 112.839 347.07 113.688 347.07C114.536 347.07 115.18 346.786 115.617 346.219C116.06 345.646 116.281 344.81 116.281 343.711C116.281 342.622 116.06 341.797 115.617 341.234C115.18 340.667 114.531 340.383 113.672 340.383C112.823 340.383 112.182 340.661 111.75 341.219C111.318 341.776 111.102 342.607 111.102 343.711ZM125.172 348L124.914 346.781H124.852C124.424 347.318 123.997 347.682 123.57 347.875C123.148 348.062 122.62 348.156 121.984 348.156C121.135 348.156 120.469 347.938 119.984 347.5C119.505 347.062 119.266 346.44 119.266 345.633C119.266 343.904 120.648 342.997 123.414 342.914L124.867 342.867V342.336C124.867 341.664 124.721 341.169 124.43 340.852C124.143 340.529 123.682 340.367 123.047 340.367C122.333 340.367 121.526 340.586 120.625 341.023L120.227 340.031C120.648 339.802 121.109 339.622 121.609 339.492C122.115 339.362 122.62 339.297 123.125 339.297C124.146 339.297 124.901 339.523 125.391 339.977C125.885 340.43 126.133 341.156 126.133 342.156V348H125.172ZM122.242 347.086C123.049 347.086 123.682 346.865 124.141 346.422C124.604 345.979 124.836 345.359 124.836 344.562V343.789L123.539 343.844C122.508 343.88 121.763 344.042 121.305 344.328C120.852 344.609 120.625 345.049 120.625 345.648C120.625 346.117 120.766 346.474 121.047 346.719C121.333 346.964 121.732 347.086 122.242 347.086ZM134.641 346.852H134.57C133.971 347.721 133.076 348.156 131.883 348.156C130.763 348.156 129.891 347.773 129.266 347.008C128.646 346.242 128.336 345.154 128.336 343.742C128.336 342.331 128.648 341.234 129.273 340.453C129.898 339.672 130.768 339.281 131.883 339.281C133.044 339.281 133.935 339.703 134.555 340.547H134.656L134.602 339.93L134.57 339.328V335.844H135.867V348H134.812L134.641 346.852ZM132.047 347.07C132.932 347.07 133.573 346.831 133.969 346.352C134.37 345.867 134.57 345.089 134.57 344.016V343.742C134.57 342.529 134.367 341.664 133.961 341.148C133.56 340.628 132.917 340.367 132.031 340.367C131.271 340.367 130.688 340.664 130.281 341.258C129.88 341.846 129.68 342.68 129.68 343.758C129.68 344.852 129.88 345.677 130.281 346.234C130.682 346.792 131.271 347.07 132.047 347.07ZM139.922 348H138.625V339.438H139.922V348ZM138.516 337.117C138.516 336.82 138.589 336.604 138.734 336.469C138.88 336.328 139.062 336.258 139.281 336.258C139.49 336.258 139.669 336.328 139.82 336.469C139.971 336.609 140.047 336.826 140.047 337.117C140.047 337.409 139.971 337.628 139.82 337.773C139.669 337.914 139.49 337.984 139.281 337.984C139.062 337.984 138.88 337.914 138.734 337.773C138.589 337.628 138.516 337.409 138.516 337.117ZM148.531 348V342.461C148.531 341.763 148.372 341.242 148.055 340.898C147.737 340.555 147.24 340.383 146.562 340.383C145.667 340.383 145.01 340.625 144.594 341.109C144.177 341.594 143.969 342.393 143.969 343.508V348H142.672V339.438H143.727L143.938 340.609H144C144.266 340.188 144.638 339.862 145.117 339.633C145.596 339.398 146.13 339.281 146.719 339.281C147.75 339.281 148.526 339.531 149.047 340.031C149.568 340.526 149.828 341.32 149.828 342.414V348H148.531ZM159.508 339.438V340.258L157.922 340.445C158.068 340.628 158.198 340.867 158.312 341.164C158.427 341.456 158.484 341.786 158.484 342.156C158.484 342.995 158.198 343.664 157.625 344.164C157.052 344.664 156.266 344.914 155.266 344.914C155.01 344.914 154.771 344.893 154.547 344.852C153.995 345.143 153.719 345.51 153.719 345.953C153.719 346.188 153.815 346.362 154.008 346.477C154.201 346.586 154.531 346.641 155 346.641H156.516C157.443 346.641 158.154 346.836 158.648 347.227C159.148 347.617 159.398 348.185 159.398 348.93C159.398 349.878 159.018 350.599 158.258 351.094C157.497 351.594 156.388 351.844 154.93 351.844C153.81 351.844 152.945 351.635 152.336 351.219C151.732 350.802 151.43 350.214 151.43 349.453C151.43 348.932 151.596 348.482 151.93 348.102C152.263 347.721 152.732 347.464 153.336 347.328C153.117 347.229 152.932 347.076 152.781 346.867C152.635 346.659 152.562 346.417 152.562 346.141C152.562 345.828 152.646 345.555 152.812 345.32C152.979 345.086 153.242 344.859 153.602 344.641C153.159 344.458 152.797 344.148 152.516 343.711C152.24 343.273 152.102 342.773 152.102 342.211C152.102 341.273 152.383 340.552 152.945 340.047C153.508 339.536 154.305 339.281 155.336 339.281C155.784 339.281 156.188 339.333 156.547 339.438H159.508ZM152.68 349.438C152.68 349.901 152.875 350.253 153.266 350.492C153.656 350.732 154.216 350.852 154.945 350.852C156.034 350.852 156.839 350.688 157.359 350.359C157.885 350.036 158.148 349.596 158.148 349.039C158.148 348.576 158.005 348.253 157.719 348.07C157.432 347.893 156.893 347.805 156.102 347.805H154.547C153.958 347.805 153.5 347.945 153.172 348.227C152.844 348.508 152.68 348.911 152.68 349.438ZM153.383 342.18C153.383 342.779 153.552 343.232 153.891 343.539C154.229 343.846 154.701 344 155.305 344C156.57 344 157.203 343.385 157.203 342.156C157.203 340.87 156.562 340.227 155.281 340.227C154.672 340.227 154.203 340.391 153.875 340.719C153.547 341.047 153.383 341.534 153.383 342.18Z" fill="#1A1A1A"/>
<path d="M268.012 340.435L274.182 330L260.479 344.024L266.218 345.519L260 356L273.69 341.976L268.012 340.435Z" fill="#FDBA0E"/>
<path d="M294.688 342.18C294.688 344.065 294.174 345.508 293.148 346.508C292.128 347.503 290.656 348 288.734 348H285.57V336.578H289.07C290.846 336.578 292.227 337.07 293.211 338.055C294.195 339.039 294.688 340.414 294.688 342.18ZM293.281 342.227C293.281 340.737 292.906 339.615 292.156 338.859C291.411 338.104 290.302 337.727 288.828 337.727H286.898V346.852H288.516C290.099 346.852 291.289 346.464 292.086 345.688C292.883 344.906 293.281 343.753 293.281 342.227ZM302.312 348L302.055 346.781H301.992C301.565 347.318 301.138 347.682 300.711 347.875C300.289 348.062 299.76 348.156 299.125 348.156C298.276 348.156 297.609 347.938 297.125 347.5C296.646 347.062 296.406 346.44 296.406 345.633C296.406 343.904 297.789 342.997 300.555 342.914L302.008 342.867V342.336C302.008 341.664 301.862 341.169 301.57 340.852C301.284 340.529 300.823 340.367 300.188 340.367C299.474 340.367 298.667 340.586 297.766 341.023L297.367 340.031C297.789 339.802 298.25 339.622 298.75 339.492C299.255 339.362 299.76 339.297 300.266 339.297C301.286 339.297 302.042 339.523 302.531 339.977C303.026 340.43 303.273 341.156 303.273 342.156V348H302.312ZM299.383 347.086C300.19 347.086 300.823 346.865 301.281 346.422C301.745 345.979 301.977 345.359 301.977 344.562V343.789L300.68 343.844C299.648 343.88 298.904 344.042 298.445 344.328C297.992 344.609 297.766 345.049 297.766 345.648C297.766 346.117 297.906 346.474 298.188 346.719C298.474 346.964 298.872 347.086 299.383 347.086ZM308.719 347.086C308.948 347.086 309.169 347.07 309.383 347.039C309.596 347.003 309.766 346.966 309.891 346.93V347.922C309.75 347.99 309.542 348.044 309.266 348.086C308.995 348.133 308.75 348.156 308.531 348.156C306.875 348.156 306.047 347.284 306.047 345.539V340.445H304.82V339.82L306.047 339.281L306.594 337.453H307.344V339.438H309.828V340.445H307.344V345.484C307.344 346 307.466 346.396 307.711 346.672C307.956 346.948 308.292 347.086 308.719 347.086ZM316.875 348L316.617 346.781H316.555C316.128 347.318 315.701 347.682 315.273 347.875C314.852 348.062 314.323 348.156 313.688 348.156C312.839 348.156 312.172 347.938 311.688 347.5C311.208 347.062 310.969 346.44 310.969 345.633C310.969 343.904 312.352 342.997 315.117 342.914L316.57 342.867V342.336C316.57 341.664 316.424 341.169 316.133 340.852C315.846 340.529 315.385 340.367 314.75 340.367C314.036 340.367 313.229 340.586 312.328 341.023L311.93 340.031C312.352 339.802 312.812 339.622 313.312 339.492C313.818 339.362 314.323 339.297 314.828 339.297C315.849 339.297 316.604 339.523 317.094 339.977C317.589 340.43 317.836 341.156 317.836 342.156V348H316.875ZM313.945 347.086C314.753 347.086 315.385 346.865 315.844 346.422C316.307 345.979 316.539 345.359 316.539 344.562V343.789L315.242 343.844C314.211 343.88 313.466 344.042 313.008 344.328C312.555 344.609 312.328 345.049 312.328 345.648C312.328 346.117 312.469 346.474 312.75 346.719C313.036 346.964 313.435 347.086 313.945 347.086ZM324.5 339.297C325.625 339.297 326.497 339.682 327.117 340.453C327.742 341.219 328.055 342.305 328.055 343.711C328.055 345.117 327.74 346.211 327.109 346.992C326.484 347.768 325.615 348.156 324.5 348.156C323.943 348.156 323.432 348.055 322.969 347.852C322.51 347.643 322.125 347.326 321.812 346.898H321.719L321.445 348H320.516V335.844H321.812V338.797C321.812 339.458 321.792 340.052 321.75 340.578H321.812C322.417 339.724 323.312 339.297 324.5 339.297ZM324.312 340.383C323.427 340.383 322.789 340.638 322.398 341.148C322.008 341.654 321.812 342.508 321.812 343.711C321.812 344.914 322.013 345.776 322.414 346.297C322.815 346.812 323.458 347.07 324.344 347.07C325.141 347.07 325.734 346.781 326.125 346.203C326.516 345.62 326.711 344.784 326.711 343.695C326.711 342.581 326.516 341.75 326.125 341.203C325.734 340.656 325.13 340.383 324.312 340.383ZM335.594 348L335.336 346.781H335.273C334.846 347.318 334.419 347.682 333.992 347.875C333.57 348.062 333.042 348.156 332.406 348.156C331.557 348.156 330.891 347.938 330.406 347.5C329.927 347.062 329.688 346.44 329.688 345.633C329.688 343.904 331.07 342.997 333.836 342.914L335.289 342.867V342.336C335.289 341.664 335.143 341.169 334.852 340.852C334.565 340.529 334.104 340.367 333.469 340.367C332.755 340.367 331.948 340.586 331.047 341.023L330.648 340.031C331.07 339.802 331.531 339.622 332.031 339.492C332.536 339.362 333.042 339.297 333.547 339.297C334.568 339.297 335.323 339.523 335.812 339.977C336.307 340.43 336.555 341.156 336.555 342.156V348H335.594ZM332.664 347.086C333.471 347.086 334.104 346.865 334.562 346.422C335.026 345.979 335.258 345.359 335.258 344.562V343.789L333.961 343.844C332.93 343.88 332.185 344.042 331.727 344.328C331.273 344.609 331.047 345.049 331.047 345.648C331.047 346.117 331.188 346.474 331.469 346.719C331.755 346.964 332.154 347.086 332.664 347.086ZM344.758 345.664C344.758 346.461 344.461 347.076 343.867 347.508C343.273 347.94 342.44 348.156 341.367 348.156C340.232 348.156 339.346 347.977 338.711 347.617V346.414C339.122 346.622 339.562 346.786 340.031 346.906C340.505 347.026 340.961 347.086 341.398 347.086C342.076 347.086 342.596 346.979 342.961 346.766C343.326 346.547 343.508 346.216 343.508 345.773C343.508 345.44 343.362 345.156 343.07 344.922C342.784 344.682 342.221 344.401 341.383 344.078C340.586 343.781 340.018 343.523 339.68 343.305C339.346 343.081 339.096 342.828 338.93 342.547C338.768 342.266 338.688 341.93 338.688 341.539C338.688 340.841 338.971 340.292 339.539 339.891C340.107 339.484 340.885 339.281 341.875 339.281C342.797 339.281 343.698 339.469 344.578 339.844L344.117 340.898C343.258 340.544 342.479 340.367 341.781 340.367C341.167 340.367 340.703 340.464 340.391 340.656C340.078 340.849 339.922 341.115 339.922 341.453C339.922 341.682 339.979 341.878 340.094 342.039C340.214 342.201 340.404 342.354 340.664 342.5C340.924 342.646 341.424 342.857 342.164 343.133C343.18 343.503 343.865 343.875 344.219 344.25C344.578 344.625 344.758 345.096 344.758 345.664ZM350.492 348.156C349.227 348.156 348.227 347.771 347.492 347C346.763 346.229 346.398 345.159 346.398 343.789C346.398 342.409 346.737 341.312 347.414 340.5C348.096 339.688 349.01 339.281 350.156 339.281C351.229 339.281 352.078 339.635 352.703 340.344C353.328 341.047 353.641 341.977 353.641 343.133V343.953H347.742C347.768 344.958 348.021 345.721 348.5 346.242C348.984 346.763 349.664 347.023 350.539 347.023C351.461 347.023 352.372 346.831 353.273 346.445V347.602C352.815 347.799 352.38 347.94 351.969 348.023C351.562 348.112 351.07 348.156 350.492 348.156ZM350.141 340.367C349.453 340.367 348.904 340.591 348.492 341.039C348.086 341.487 347.846 342.107 347.773 342.898H352.25C352.25 342.081 352.068 341.456 351.703 341.023C351.339 340.586 350.818 340.367 350.141 340.367ZM365.539 345.664C365.539 346.461 365.242 347.076 364.648 347.508C364.055 347.94 363.221 348.156 362.148 348.156C361.013 348.156 360.128 347.977 359.492 347.617V346.414C359.904 346.622 360.344 346.786 360.812 346.906C361.286 347.026 361.742 347.086 362.18 347.086C362.857 347.086 363.378 346.979 363.742 346.766C364.107 346.547 364.289 346.216 364.289 345.773C364.289 345.44 364.143 345.156 363.852 344.922C363.565 344.682 363.003 344.401 362.164 344.078C361.367 343.781 360.799 343.523 360.461 343.305C360.128 343.081 359.878 342.828 359.711 342.547C359.549 342.266 359.469 341.93 359.469 341.539C359.469 340.841 359.753 340.292 360.32 339.891C360.888 339.484 361.667 339.281 362.656 339.281C363.578 339.281 364.479 339.469 365.359 339.844L364.898 340.898C364.039 340.544 363.26 340.367 362.562 340.367C361.948 340.367 361.484 340.464 361.172 340.656C360.859 340.849 360.703 341.115 360.703 341.453C360.703 341.682 360.76 341.878 360.875 342.039C360.995 342.201 361.185 342.354 361.445 342.5C361.706 342.646 362.206 342.857 362.945 343.133C363.961 343.503 364.646 343.875 365 344.25C365.359 344.625 365.539 345.096 365.539 345.664ZM371.641 348.156C371.083 348.156 370.573 348.055 370.109 347.852C369.651 347.643 369.266 347.326 368.953 346.898H368.859C368.922 347.398 368.953 347.872 368.953 348.32V351.844H367.656V339.438H368.711L368.891 340.609H368.953C369.286 340.141 369.674 339.802 370.117 339.594C370.56 339.385 371.068 339.281 371.641 339.281C372.776 339.281 373.651 339.669 374.266 340.445C374.885 341.221 375.195 342.31 375.195 343.711C375.195 345.117 374.88 346.211 374.25 346.992C373.625 347.768 372.755 348.156 371.641 348.156ZM371.453 340.383C370.578 340.383 369.945 340.625 369.555 341.109C369.164 341.594 368.964 342.365 368.953 343.422V343.711C368.953 344.914 369.154 345.776 369.555 346.297C369.956 346.812 370.599 347.07 371.484 347.07C372.224 347.07 372.802 346.771 373.219 346.172C373.641 345.573 373.852 344.747 373.852 343.695C373.852 342.628 373.641 341.81 373.219 341.242C372.802 340.669 372.214 340.383 371.453 340.383ZM381.086 348.156C379.82 348.156 378.82 347.771 378.086 347C377.357 346.229 376.992 345.159 376.992 343.789C376.992 342.409 377.331 341.312 378.008 340.5C378.69 339.688 379.604 339.281 380.75 339.281C381.823 339.281 382.672 339.635 383.297 340.344C383.922 341.047 384.234 341.977 384.234 343.133V343.953H378.336C378.362 344.958 378.615 345.721 379.094 346.242C379.578 346.763 380.258 347.023 381.133 347.023C382.055 347.023 382.966 346.831 383.867 346.445V347.602C383.409 347.799 382.974 347.94 382.562 348.023C382.156 348.112 381.664 348.156 381.086 348.156ZM380.734 340.367C380.047 340.367 379.497 340.591 379.086 341.039C378.68 341.487 378.44 342.107 378.367 342.898H382.844C382.844 342.081 382.661 341.456 382.297 341.023C381.932 340.586 381.411 340.367 380.734 340.367ZM390.07 348.156C388.805 348.156 387.805 347.771 387.07 347C386.341 346.229 385.977 345.159 385.977 343.789C385.977 342.409 386.315 341.312 386.992 340.5C387.674 339.688 388.589 339.281 389.734 339.281C390.807 339.281 391.656 339.635 392.281 340.344C392.906 341.047 393.219 341.977 393.219 343.133V343.953H387.32C387.346 344.958 387.599 345.721 388.078 346.242C388.562 346.763 389.242 347.023 390.117 347.023C391.039 347.023 391.951 346.831 392.852 346.445V347.602C392.393 347.799 391.958 347.94 391.547 348.023C391.141 348.112 390.648 348.156 390.07 348.156ZM389.719 340.367C389.031 340.367 388.482 340.591 388.07 341.039C387.664 341.487 387.424 342.107 387.352 342.898H391.828C391.828 342.081 391.646 341.456 391.281 341.023C390.917 340.586 390.396 340.367 389.719 340.367ZM401.266 346.852H401.195C400.596 347.721 399.701 348.156 398.508 348.156C397.388 348.156 396.516 347.773 395.891 347.008C395.271 346.242 394.961 345.154 394.961 343.742C394.961 342.331 395.273 341.234 395.898 340.453C396.523 339.672 397.393 339.281 398.508 339.281C399.669 339.281 400.56 339.703 401.18 340.547H401.281L401.227 339.93L401.195 339.328V335.844H402.492V348H401.438L401.266 346.852ZM398.672 347.07C399.557 347.07 400.198 346.831 400.594 346.352C400.995 345.867 401.195 345.089 401.195 344.016V343.742C401.195 342.529 400.992 341.664 400.586 341.148C400.185 340.628 399.542 340.367 398.656 340.367C397.896 340.367 397.312 340.664 396.906 341.258C396.505 341.846 396.305 342.68 396.305 343.758C396.305 344.852 396.505 345.677 396.906 346.234C397.307 346.792 397.896 347.07 398.672 347.07Z" fill="#1A1A1A"/>
<defs>
<clipPath id="clip0_148_762">
<rect width="28" height="62" fill="white" transform="translate(240.617 154.391) rotate(43.0346)"/>
</clipPath>
</defs>
</svg>
