<svg width="147" height="32" viewBox="0 0 147 32" fill="none" xmlns="http://www.w3.org/2000/svg">
<path d="M32.1328 20.123C32.1328 21.3926 31.6738 22.3887 30.7559 23.1113C29.8379 23.834 28.5716 24.1953 26.957 24.1953C25.3424 24.1953 24.0208 23.9447 22.9922 23.4434V21.2363C23.6432 21.5423 24.3333 21.7832 25.0625 21.959C25.7982 22.1348 26.4818 22.2227 27.1133 22.2227C28.0378 22.2227 28.7181 22.0469 29.1543 21.6953C29.597 21.3438 29.8184 20.8717 29.8184 20.2793C29.8184 19.7454 29.6165 19.293 29.2129 18.9219C28.8092 18.5508 27.9759 18.1113 26.7129 17.6035C25.4108 17.0762 24.4928 16.474 23.959 15.7969C23.4251 15.1198 23.1582 14.306 23.1582 13.3555C23.1582 12.1641 23.5814 11.2266 24.4277 10.543C25.2741 9.85938 26.4102 9.51758 27.8359 9.51758C29.2031 9.51758 30.5638 9.81706 31.918 10.416L31.1758 12.3203C29.9062 11.7865 28.7734 11.5195 27.7773 11.5195C27.0221 11.5195 26.4492 11.6855 26.0586 12.0176C25.668 12.3431 25.4727 12.776 25.4727 13.3164C25.4727 13.6875 25.5508 14.0065 25.707 14.2734C25.8633 14.5339 26.1204 14.7812 26.4785 15.0156C26.8366 15.25 27.4811 15.5592 28.4121 15.9434C29.4603 16.3796 30.2285 16.7865 30.7168 17.1641C31.2051 17.5417 31.5632 17.9681 31.791 18.4434C32.0189 18.9186 32.1328 19.4785 32.1328 20.123ZM40.1309 24.1953C38.7637 24.1953 37.7025 23.7038 36.9473 22.7207H36.8105C36.9017 23.6322 36.9473 24.1855 36.9473 24.3809V28.8047H34.6523V13.1992H36.5078C36.5599 13.401 36.6673 13.8828 36.8301 14.6445H36.9473C37.6634 13.5508 38.7376 13.0039 40.1699 13.0039C41.5176 13.0039 42.5658 13.4922 43.3145 14.4688C44.0697 15.4453 44.4473 16.8158 44.4473 18.5801C44.4473 20.3444 44.0632 21.7214 43.2949 22.7109C42.5332 23.7005 41.4785 24.1953 40.1309 24.1953ZM39.5742 14.8789C38.6628 14.8789 37.9954 15.1458 37.5723 15.6797C37.1556 16.2135 36.9473 17.0664 36.9473 18.2383V18.5801C36.9473 19.8952 37.1556 20.849 37.5723 21.4414C37.9889 22.0273 38.6693 22.3203 39.6133 22.3203C40.4076 22.3203 41.0195 21.9948 41.4492 21.3438C41.8789 20.6927 42.0938 19.765 42.0938 18.5605C42.0938 17.3496 41.8789 16.4349 41.4492 15.8164C41.026 15.1914 40.401 14.8789 39.5742 14.8789ZM51.8301 24.1953C50.1504 24.1953 48.8353 23.707 47.8848 22.7305C46.9408 21.7474 46.4688 20.3965 46.4688 18.6777C46.4688 16.9134 46.9082 15.5267 47.7871 14.5176C48.666 13.5085 49.8737 13.0039 51.4102 13.0039C52.8359 13.0039 53.9622 13.4368 54.7891 14.3027C55.6159 15.1686 56.0293 16.36 56.0293 17.877V19.1172H48.832C48.8646 20.1654 49.1478 20.9727 49.6816 21.5391C50.2155 22.099 50.9674 22.3789 51.9375 22.3789C52.5755 22.3789 53.168 22.3203 53.7148 22.2031C54.2682 22.0794 54.8607 21.8776 55.4922 21.5977V23.4629C54.9323 23.7298 54.3659 23.9186 53.793 24.0293C53.2201 24.14 52.5658 24.1953 51.8301 24.1953ZM51.4102 14.7422C50.681 14.7422 50.0951 14.9733 49.6523 15.4355C49.2161 15.8978 48.9557 16.5716 48.8711 17.457H53.7734C53.7604 16.5651 53.5456 15.8913 53.1289 15.4355C52.7122 14.9733 52.1393 14.7422 51.4102 14.7422ZM63.3535 24.1953C61.6738 24.1953 60.3587 23.707 59.4082 22.7305C58.4642 21.7474 57.9922 20.3965 57.9922 18.6777C57.9922 16.9134 58.4316 15.5267 59.3105 14.5176C60.1895 13.5085 61.3971 13.0039 62.9336 13.0039C64.3594 13.0039 65.4857 13.4368 66.3125 14.3027C67.1393 15.1686 67.5527 16.36 67.5527 17.877V19.1172H60.3555C60.388 20.1654 60.6712 20.9727 61.2051 21.5391C61.7389 22.099 62.4909 22.3789 63.4609 22.3789C64.099 22.3789 64.6914 22.3203 65.2383 22.2031C65.7917 22.0794 66.3841 21.8776 67.0156 21.5977V23.4629C66.4557 23.7298 65.8893 23.9186 65.3164 24.0293C64.7435 24.14 64.0892 24.1953 63.3535 24.1953ZM62.9336 14.7422C62.2044 14.7422 61.6185 14.9733 61.1758 15.4355C60.7396 15.8978 60.4792 16.5716 60.3945 17.457H65.2969C65.2839 16.5651 65.069 15.8913 64.6523 15.4355C64.2357 14.9733 63.6628 14.7422 62.9336 14.7422ZM73.8027 24.1953C72.4551 24.1953 71.4036 23.707 70.6484 22.7305C69.8932 21.7539 69.5156 20.3835 69.5156 18.6191C69.5156 16.8483 69.8965 15.4714 70.6582 14.4883C71.4264 13.4987 72.4876 13.0039 73.8418 13.0039C75.2611 13.0039 76.3418 13.528 77.084 14.5762H77.2012C77.0905 13.8014 77.0352 13.1895 77.0352 12.7402V8.80469H79.3398V24H77.543L77.1426 22.584H77.0352C76.2995 23.6582 75.222 24.1953 73.8027 24.1953ZM74.418 22.3398C75.362 22.3398 76.0488 22.0762 76.4785 21.5488C76.9082 21.015 77.1296 20.1523 77.1426 18.9609V18.6387C77.1426 17.278 76.9212 16.3112 76.4785 15.7383C76.0358 15.1654 75.3424 14.8789 74.3984 14.8789C73.5911 14.8789 72.9694 15.2077 72.5332 15.8652C72.097 16.5163 71.8789 17.4473 71.8789 18.6582C71.8789 19.8561 72.0905 20.7708 72.5137 21.4023C72.9368 22.0273 73.5716 22.3398 74.418 22.3398ZM89.0371 24L84.8965 12.0762H84.8184C84.929 13.847 84.9844 15.5072 84.9844 17.0566V24H82.8652V9.72266H86.1562L90.1211 21.0801H90.1797L94.2617 9.72266H97.5625V24H95.3164V16.9395C95.3164 16.2298 95.3327 15.3053 95.3652 14.166C95.4043 13.0267 95.4368 12.3366 95.4629 12.0957H95.3848L91.0977 24H89.0371ZM99.4375 13.1992H101.938L104.135 19.3223C104.467 20.1947 104.688 21.015 104.799 21.7832H104.877C104.936 21.4251 105.043 20.9922 105.199 20.4844C105.355 19.9701 106.182 17.5417 107.68 13.1992H110.16L105.541 25.4355C104.701 27.6816 103.301 28.8047 101.342 28.8047C100.834 28.8047 100.339 28.7493 99.8574 28.6387V26.8223C100.202 26.9004 100.596 26.9395 101.039 26.9395C102.146 26.9395 102.924 26.2982 103.373 25.0156L103.773 24L99.4375 13.1992ZM120.277 20.123C120.277 21.3926 119.818 22.3887 118.9 23.1113C117.982 23.834 116.716 24.1953 115.102 24.1953C113.487 24.1953 112.165 23.9447 111.137 23.4434V21.2363C111.788 21.5423 112.478 21.7832 113.207 21.959C113.943 22.1348 114.626 22.2227 115.258 22.2227C116.182 22.2227 116.863 22.0469 117.299 21.6953C117.742 21.3438 117.963 20.8717 117.963 20.2793C117.963 19.7454 117.761 19.293 117.357 18.9219C116.954 18.5508 116.12 18.1113 114.857 17.6035C113.555 17.0762 112.637 16.474 112.104 15.7969C111.57 15.1198 111.303 14.306 111.303 13.3555C111.303 12.1641 111.726 11.2266 112.572 10.543C113.419 9.85938 114.555 9.51758 115.98 9.51758C117.348 9.51758 118.708 9.81706 120.062 10.416L119.32 12.3203C118.051 11.7865 116.918 11.5195 115.922 11.5195C115.167 11.5195 114.594 11.6855 114.203 12.0176C113.812 12.3431 113.617 12.776 113.617 13.3164C113.617 13.6875 113.695 14.0065 113.852 14.2734C114.008 14.5339 114.265 14.7812 114.623 15.0156C114.981 15.25 115.626 15.5592 116.557 15.9434C117.605 16.3796 118.373 16.7865 118.861 17.1641C119.35 17.5417 119.708 17.9681 119.936 18.4434C120.163 18.9186 120.277 19.4785 120.277 20.123ZM125.092 24H122.797V13.1992H125.092V24ZM122.66 10.3379C122.66 9.92773 122.771 9.61198 122.992 9.39062C123.22 9.16927 123.542 9.05859 123.959 9.05859C124.363 9.05859 124.675 9.16927 124.896 9.39062C125.124 9.61198 125.238 9.92773 125.238 10.3379C125.238 10.7285 125.124 11.0378 124.896 11.2656C124.675 11.487 124.363 11.5977 123.959 11.5977C123.542 11.5977 123.22 11.487 122.992 11.2656C122.771 11.0378 122.66 10.7285 122.66 10.3379ZM132.406 22.3398C132.966 22.3398 133.526 22.252 134.086 22.0762V23.8047C133.832 23.9154 133.503 24.0065 133.1 24.0781C132.702 24.1562 132.289 24.1953 131.859 24.1953C129.685 24.1953 128.598 23.0495 128.598 20.7578V14.9375H127.123V13.9219L128.705 13.082L129.486 10.7969H130.902V13.1992H133.979V14.9375H130.902V20.7188C130.902 21.2721 131.039 21.6823 131.312 21.9492C131.592 22.2096 131.957 22.3398 132.406 22.3398ZM140.971 24.1953C139.291 24.1953 137.976 23.707 137.025 22.7305C136.081 21.7474 135.609 20.3965 135.609 18.6777C135.609 16.9134 136.049 15.5267 136.928 14.5176C137.807 13.5085 139.014 13.0039 140.551 13.0039C141.977 13.0039 143.103 13.4368 143.93 14.3027C144.757 15.1686 145.17 16.36 145.17 17.877V19.1172H137.973C138.005 20.1654 138.288 20.9727 138.822 21.5391C139.356 22.099 140.108 22.3789 141.078 22.3789C141.716 22.3789 142.309 22.3203 142.855 22.2031C143.409 22.0794 144.001 21.8776 144.633 21.5977V23.4629C144.073 23.7298 143.507 23.9186 142.934 24.0293C142.361 24.14 141.706 24.1953 140.971 24.1953ZM140.551 14.7422C139.822 14.7422 139.236 14.9733 138.793 15.4355C138.357 15.8978 138.096 16.5716 138.012 17.457H142.914C142.901 16.5651 142.686 15.8913 142.27 15.4355C141.853 14.9733 141.28 14.7422 140.551 14.7422Z" fill="#1A1A1A"/>
<path d="M9.75257 12.8434L16.9493 0L0.964916 17.26L7.65936 19.1003L0.40625 32L16.3751 14.74L9.75257 12.8434Z" fill="#FDBA0E"/>
</svg>
